<?xml version="1.0" encoding="utf-8"?>
<!-- Generator: Adobe Illustrator 23.0.3, SVG Export Plug-In . SVG Version: 6.00 Build 0)  -->
<svg version="1.1" id="Calque_1" xmlns="http://www.w3.org/2000/svg" xmlns:xlink="http://www.w3.org/1999/xlink" x="0px" y="0px"
	 viewBox="0 0 500 500" style="enable-background:new 0 0 500 500;" xml:space="preserve">
<style type="text/css">
	.st0{fill:#FFFFFF;stroke:#6E6E6E;stroke-width:0.75;stroke-miterlimit:10;}
</style>
<g>
	<g>
		<path class="st0" d="M0.8,289.8c6.8,3.8,13.6,7.6,20.7,11.7c-7.1,4.1-13.9,7.9-20.7,11.8C0.8,305.5,0.8,297.7,0.8,289.8z"/>
		<path class="st0" d="M193.9,497.6c-0.4-6.8-0.1-13.6-0.2-20.4c0-0.9,0.3-1.1,1.1-0.6c6.5,3.7,12.9,7.5,19.7,11.4
			c-5.1,3-9.9,5.8-14.7,8.6c-0.5,0.3-1.2,0.3-1.4,1.1C197,497.6,195.4,497.6,193.9,497.6z"/>
		<path class="st0" d="M0.8,327.2c6.8,3.8,13.5,7.6,20.6,11.6c-7.1,4.1-13.8,8-20.6,11.9C0.8,342.8,0.8,335,0.8,327.2z"/>
		<path class="st0" d="M181,497.6c0-1.2-1.1-1.2-1.7-1.6c-4.5-2.7-9-5.2-13.9-8.1c6.9-4,13.6-7.8,20.7-11.9c0,7.5,0,14.5,0,21.5
			C184.4,497.6,182.7,497.6,181,497.6z"/>
		<path class="st0" d="M246.4,497.6c-4.9-2.9-9.9-5.8-14.8-8.7c-0.9-0.5-1.7-0.9-0.2-1.7c6.1-3.5,12.2-7,18.3-10.5
			c0.2-0.1,0.4-0.1,0.8-0.2c0,7.1,0,14.1,0,21.1C249.2,497.6,247.8,497.6,246.4,497.6z"/>
		<path class="st0" d="M0.8,253c2.8,0.9,5.1,2.7,7.6,4.1c4.1,2.2,8.1,4.7,12.4,7.2c-6.8,3.8-13.2,7.9-20,11.3
			C0.8,268,0.8,260.5,0.8,253z"/>
		<path class="st0" d="M129.4,497.6c0-6.9,0-13.7,0-21.1c6.8,3.9,13.2,7.6,19.9,11.4c-5.3,3-10.1,5.9-15,8.7
			c-0.4,0.3-1.1,0.3-1.2,0.9C131.8,497.6,130.6,497.6,129.4,497.6z"/>
		<path class="st0" d="M117.9,497.6c-4.6-3.1-9.6-5.7-14.4-8.5c-1.5-0.9-1.7-1.3,0-2.3c5.3-3,10.6-6.1,15.9-9.1
			c0.4-0.3,0.9-0.4,1.7-0.8c0,7.1,0,13.9,0,20.7C120,497.6,118.9,497.6,117.9,497.6z"/>
		<path class="st0" d="M258.9,497.6c0-6.8,0-13.6,0-20.8c6.4,3.7,12.7,7.3,18.9,10.9c0,1-0.8,1-1.2,1.3c-4.5,2.6-9,5.2-13.5,7.8
			c-0.4,0.2-0.9,0.3-1,0.9C261,497.6,259.9,497.6,258.9,497.6z"/>
		<path class="st0" d="M0.8,216.1c4.5,2,8.5,4.8,12.7,7.1c2.1,1.1,4.1,2.4,6.4,3.7c-4.4,2.6-8.6,5-12.8,7.4c-2.1,1.2-4,2.7-6.4,3.4
			C0.8,230.5,0.8,223.3,0.8,216.1z"/>
		<path class="st0" d="M0.8,365.4c6.2,3.5,12.4,7,18.8,10.7c-6.3,3.6-12.2,7.1-18.2,10.5c-0.2,0.1-0.4,0-0.6,0
			C0.8,379.5,0.8,372.5,0.8,365.4z"/>
		<path class="st0" d="M65.3,497.6c0-6.6,0-13.3,0-20.1c1.4,0.3,2.5,1.2,3.6,1.8c4.3,2.4,8.6,5,12.9,7.4c2,1.1,1.5,1.6-0.1,2.5
			c-4.7,2.8-9.7,5.2-14.2,8.4C66.9,497.6,66.1,497.6,65.3,497.6z"/>
		<path class="st0" d="M0.8,179.2c3.3,1.2,6.1,3.4,9.2,5c3,1.6,6,3.4,9.3,5.3c-2.8,1.6-5.4,3.2-8.1,4.7c-3.5,1.9-6.7,4.2-10.4,5.7
			C0.8,193.1,0.8,186.2,0.8,179.2z"/>
		<path class="st0" d="M54.3,497.6c-5.4-3.1-10.8-6.3-16.5-9.7c3.3-1.9,6.3-3.6,9.3-5.4c2.4-1.4,4.8-2.7,7.1-4.2
			c1.4-0.9,1.9-0.8,1.9,1c-0.1,5.6,0,11.2,0,16.8c0,0.5,0.1,0.9,0.1,1.4C55.5,497.6,54.9,497.6,54.3,497.6z"/>
		<path class="st0" d="M1.8,478.3c5.5,3.2,11,6.3,16.8,9.7c-5.7,3.4-11.1,6.5-16.4,9.7c-0.3,0-0.6,0-0.9,0c-0.5-4-0.1-8.1-0.2-12.1
			c0-2,0-4,0-6C1.1,479.1,0.7,478.3,1.8,478.3z"/>
		<path class="st0" d="M313.2,497.6c-4.5-3.1-9.4-5.6-14.2-8.4c-1.7-1-1.9-1.4,0-2.5c4.9-2.7,9.7-5.5,15.1-8.7c0,6.8,0,13.2,0,19.6
			C313.9,497.6,313.5,497.6,313.2,497.6z"/>
		<path class="st0" d="M14.2,0c1.2,1.4,3.1,1.8,4.8,3.2C13.2,6.5,7.5,9.8,1.9,13c-0.5,0.1-0.8-0.1-0.8-0.6C1.2,8.3,0.8,4.1,1.3,0
			C5.6,0,9.9,0,14.2,0z"/>
		<path class="st0" d="M55.2,0c0.4,4,0.1,8.1,0.2,12.6C49.8,9.4,44.5,6.3,39,3.2C40.9,2,42.5,1,44.1,0C47.8,0,51.5,0,55.2,0z"/>
		<path class="st0" d="M75.9,0c1.6,1,3.2,2,5.2,3.2c-4.9,2.8-9.5,5.5-14.4,8.3c0-4.1,0-7.8,0-11.5C69.8,0,72.9,0,75.9,0z"/>
		<path class="st0" d="M117.4,0c0,2.7,0,5.3,0,8.3c-3-1.7-5.9-3.4-8.8-5.1c1.3-1.5,3.4-1.4,4.2-3.3C114.3,0,115.9,0,117.4,0z"/>
		<path class="st0" d="M135.4,0c1.3,1.4,3.2,1.8,4.6,3c-0.1,0.1-0.1,0.2-0.1,0.3c-1.8,1.2-3.6,2.5-5.7,3.2c-0.6-2.1-0.3-4.3-0.2-6.4
			C134.5,0,134.9,0,135.4,0z"/>
		<path class="st0" d="M3.2,422.1c-0.5,0.9-1.4,1.2-2.3,1.4c0-6.6,0-13.2,0-19.8c0.5,0,1.1-0.2,1.3,0.5c-0.4,5.2-0.1,10.4-0.2,15.6
			C1.9,420.8,2.5,421.4,3.2,422.1z"/>
		<path class="st0" d="M0.8,440.5c0.6,0.1,1.2,0.2,1.4,0.9c-0.5,4.7-0.1,9.4-0.2,14.1c0,1.6,0,3.2-0.3,4.8c-0.1,0.5-0.5,0.5-0.9,0.5
			C0.8,454,0.8,447.3,0.8,440.5z"/>
		<path class="st0" d="M0.8,104.6c0.5,0.2,1.1,0.4,1.4,0.9c-0.5,5.4-0.1,10.8-0.2,16.2c0,1.1,0,2.1-0.2,3.2
			c-0.2,0.3-0.5,0.6-0.9,0.4C0.8,118.4,0.8,111.5,0.8,104.6z"/>
		<path class="st0" d="M0.8,67.3c0.3,0.2,0.6,0.3,0.8,0.5c0.5,1.5,0.3,3,0.3,4.5c-0.1,5.1,0.2,10.2-0.2,15.3c-0.3,0.3-0.7,0.6-1,0.9
			C0.8,81.4,0.8,74.3,0.8,67.3z"/>
		<path class="st0" d="M0.8,141.9c0.4,0,0.7,0.1,0.9,0.5c0.6,1.8,0.3,3.6,0.3,5.4c-0.1,4.8,0.3,9.6-0.2,14.3
			c-0.2,0.3-0.5,0.6-0.9,0.5C0.8,155.7,0.8,148.8,0.8,141.9z"/>
		<path class="st0" d="M1.9,50.3c-0.3,0.3-0.6,0.6-1,0.4c0-6.9,0-13.8,0-20.7c0.2,0.1,0.3,0.2,0.5,0.4C1.6,31,2,31.7,2,32.5
			C2,38.4,2.2,44.4,1.9,50.3z"/>
		<path class="st0" d="M1.8,478.3c-0.9,0.6-0.5,1.5-0.5,2.3c0,5.7,0,11.4,0,17.1c-1,0-0.4-0.8-0.4-1.2c0-6.2,0-12.4,0-18.7
			C1.3,477.7,1.6,477.9,1.8,478.3z"/>
		<path class="st0" d="M1.3,0c0,3.6,0,7.1,0,10.7c0,0.8-0.3,1.7,0.6,2.3c-0.3,0.3-0.7,0.6-1,0.8c0-4.2,0-8.5,0-12.7
			C0.9,0.8,0.3,0,1.3,0z"/>
		<path class="st0" d="M498.5,488.9c-1.2-0.6-0.9-1.2,0-1.8C498.5,487.7,498.5,488.3,498.5,488.9z"/>
		<path class="st0" d="M24.9,307.6c0,8.5,0,16.7,0,25.2c-7.3-4.2-14.4-8.3-21.8-12.6C10.4,315.9,17.5,311.9,24.9,307.6z"/>
		<path class="st0" d="M57,326.6c0,8,0,15.4,0,22.9c0,1.2-0.2,1.5-1.4,0.8c-6.5-3.8-13-7.5-19.8-11.5
			C42.9,334.7,49.8,330.7,57,326.6z"/>
		<path class="st0" d="M3.6,282.9c7.2-4.1,13.9-8,20.9-12.1c0,8.1,0,15.9,0,24.1C17.5,290.9,10.8,287,3.6,282.9z"/>
		<path class="st0" d="M53.4,320.2c-7.2,4.2-14.1,8.1-21.2,12.2c0-8.3,0-16.2,0-24.5C39.2,312,46.1,316,53.4,320.2z"/>
		<path class="st0" d="M53.3,357.5c-7.1,4.1-13.9,8.1-21,12.2c0-8.2,0-16.1,0-24.3C39.2,349.4,46.1,353.3,53.3,357.5z"/>
		<path class="st0" d="M64.8,364.3c6.9,4,13.5,7.8,20.4,11.8c-7,4-13.6,7.8-20.4,11.8C64.8,380,64.8,372.4,64.8,364.3z"/>
		<path class="st0" d="M197.6,469.4c7-4,13.7-7.9,20.6-11.9c0,8,0,15.7,0,23.8C211.3,477.3,204.6,473.4,197.6,469.4z"/>
		<path class="st0" d="M24.4,345.5c0,8.1,0,15.8,0,23.9c-6.9-4-13.7-7.9-20.7-12C10.8,353.4,17.5,349.5,24.4,345.5z"/>
		<path class="st0" d="M246.8,469.4c-7,4-13.6,7.9-20.6,11.9c0-8,0-15.7,0-23.8C233,461.4,239.7,465.3,246.8,469.4z"/>
		<path class="st0" d="M230.2,450.7c6.9-4,13.4-7.8,20.2-11.7c0,7.9,0,15.3,0,23.3C243.7,458.5,237.2,454.8,230.2,450.7z"/>
		<path class="st0" d="M36.3,376.1c6.9-4,13.5-7.8,20.3-11.7c0,7.9,0,15.5,0,23.4C49.9,383.9,43.3,380.1,36.3,376.1z"/>
		<path class="st0" d="M68.6,357.5c7-4,13.5-7.8,20.3-11.7c0,7.9,0,15.5,0,23.4C82.1,365.3,75.5,361.5,68.6,357.5z"/>
		<path class="st0" d="M194.1,462.2c0-7.9,0-15.3,0-23.1c6.7,3.9,13.2,7.7,20,11.6C207.2,454.7,200.7,458.4,194.1,462.2z"/>
		<path class="st0" d="M84.8,338.9c-6.6,3.8-13.1,7.6-19.6,11.3c-0.7-0.3-0.5-0.9-0.5-1.3c0-6.7,0-13.3,0-20c0-1.2,0-2,1.6-1.1
			c5.9,3.5,11.9,6.9,17.9,10.3C84.4,338.4,84.6,338.7,84.8,338.9z"/>
		<path class="st0" d="M161.7,480.9c0-7.9,0-15.3,0-23.1c6.7,3.8,13.2,7.6,20.1,11.5C175.1,473.2,168.6,477,161.7,480.9z"/>
		<path class="st0" d="M56.6,289.9c0,7.9,0,15.3,0,23.2c-6.7-3.9-13.3-7.6-20.1-11.5C43.2,297.7,49.7,293.9,56.6,289.9z"/>
		<path class="st0" d="M97.1,383.2c6.8,3.9,13.3,7.7,20.1,11.6c-5.4,3.2-10.6,6.1-15.7,9.1c-4.3,2.5-4.3,2.5-4.3-2.4
			C97.1,395.5,97.1,389.6,97.1,383.2z"/>
		<path class="st0" d="M88.9,383.2c0,7.8,0,15.2,0,23c-6.7-3.9-13.2-7.6-20-11.5C75.7,390.9,82.1,387.2,88.9,383.2z"/>
		<path class="st0" d="M24.2,234.1c0,7.5,0,14.4,0,21.3c0,1.3-0.3,1.5-1.4,0.8c-5.7-3.3-11.4-6.6-17.1-9.9c-0.5-0.3-1.6-0.6-0.3-1.3
			C11.6,241.4,17.7,237.9,24.2,234.1z"/>
		<path class="st0" d="M52.5,282.9c-6.8,3.9-13.2,7.6-19.9,11.5c0-7.8,0-15.2,0-22.9C39.3,275.2,45.7,278.9,52.5,282.9z"/>
		<path class="st0" d="M121.1,364.7c0,7.7,0,15.1,0,22.9c-6.7-3.8-13.1-7.6-19.8-11.5C108,372.3,114.4,368.5,121.1,364.7z"/>
		<path class="st0" d="M97.2,368.9c0-7.4,0-14.3,0-21.1c0-1.8,0.7-1.2,1.6-0.7c5.9,3.4,11.8,6.8,18.1,10.4
			C110.3,361.3,104,364.9,97.2,368.9z"/>
		<path class="st0" d="M153.4,458c0,7.8,0,15.1,0,22.8c-6.6-3.8-13-7.5-19.7-11.4C140.3,465.5,146.7,461.9,153.4,458z"/>
		<path class="st0" d="M185.8,439.3c0,7.4,0,14.4,0,21.4c0,1.1-0.3,1.4-1.3,0.8c-6.1-3.5-12.1-7-18.5-10.7
			C172.6,446.9,179,443.2,185.8,439.3z"/>
		<path class="st0" d="M258.8,462.1c0-7.7,0-15,0-22.7c6.6,3.8,12.9,7.5,19.7,11.4C271.8,454.6,265.5,458.2,258.8,462.1z"/>
		<path class="st0" d="M226.6,443.4c0-7.6,0-14.9,0-22.6c6.6,3.8,12.9,7.4,19.6,11.3C239.5,435.9,233.2,439.6,226.6,443.4z"/>
		<path class="st0" d="M120.9,402.2c0,7.6,0,14.8,0,22.3c-6.5-3.7-12.7-7.3-19.4-11.1C108.1,409.7,114.3,406.1,120.9,402.2z"/>
		<path class="st0" d="M217.8,443.3c-6.6-3.8-12.8-7.4-19.4-11.2c6.6-3.8,12.9-7.4,19.4-11.2C217.8,428.4,217.8,435.7,217.8,443.3z"
			/>
		<path class="st0" d="M153.2,383.6c0,7.6,0,14.8,0,22.3c-6.5-3.7-12.7-7.4-19.3-11.2C140.5,391,146.8,387.3,153.2,383.6z"/>
		<path class="st0" d="M153.2,421c0,7.5,0,14.6,0,22.1c-6.4-3.7-12.6-7.3-19.1-11C140.5,428.3,146.7,424.8,153.2,421z"/>
		<path class="st0" d="M278.1,413.4c-6.5,3.8-12.7,7.3-19.3,11.1c0-3.6,0-6.8,0-9.9c0-3.6,0-7.2,0-10.8c0-0.7-0.1-1.6,1.1-0.9
			C265.9,406.4,271.9,409.8,278.1,413.4z"/>
		<path class="st0" d="M282.4,421c0,7.5,0,14.7,0,22.2c-6.5-3.8-12.8-7.4-19.2-11.1C269.7,428.3,275.9,424.7,282.4,421z"/>
		<path class="st0" d="M230.9,413.4c6.3-3.6,12.2-7,18-10.4c0.8-0.5,1.3-0.5,1.3,0.6c0,6.8,0,13.6,0,20.9
			C243.7,420.8,237.5,417.2,230.9,413.4z"/>
		<path class="st0" d="M129.8,402.3c6.6,3.8,12.8,7.4,19.3,11.1c-6.6,3.8-12.8,7.4-19.3,11.1C129.8,417,129.8,409.9,129.8,402.3z"/>
		<path class="st0" d="M166.4,413.4c6.4-3.7,12.5-7.2,18.9-10.9c0,7.3,0,14.4,0,21.8C179,420.7,172.9,417.1,166.4,413.4z"/>
		<path class="st0" d="M162.1,421c6.4,3.7,12.6,7.3,19.1,11.1c-6.4,3.7-12.6,7.3-19.1,11C162.1,435.7,162.1,428.5,162.1,421z"/>
		<path class="st0" d="M129.9,365.1c6.4,3.7,12.5,7.2,19,11c-6.5,3.7-12.6,7.3-19,11C129.9,379.7,129.9,372.6,129.9,365.1z"/>
		<path class="st0" d="M129.8,461.8c0-7.5,0-14.6,0-22.1c6.4,3.7,12.6,7.3,19.1,11C142.4,454.5,136.2,458.1,129.8,461.8z"/>
		<path class="st0" d="M263.4,469.4c6.4-3.7,12.5-7.2,18.8-10.9c0,7.3,0,14.3,0,21.7C275.9,476.6,269.8,473.1,263.4,469.4z"/>
		<path class="st0" d="M194.3,402.4c6.5,3.7,12.5,7.2,19,11c-2.4,1.4-4.5,2.6-6.5,3.8c-3.6,2.1-7.3,4.2-10.9,6.3
			c-1,0.6-1.6,0.8-1.6-0.8C194.3,416.2,194.3,409.6,194.3,402.4z"/>
		<path class="st0" d="M97.5,480.3c0-7.4,0-14.5,0-21.8c6.4,3.7,12.5,7.2,18.9,10.9C110.1,473,104,476.6,97.5,480.3z"/>
		<path class="st0" d="M69.5,320.2c6.5-3.8,12.6-7.3,18.9-10.9c0,7.4,0,14.4,0,21.8C82.2,327.5,76,323.9,69.5,320.2z"/>
		<path class="st0" d="M162.1,405.7c0-7.4,0-14.3,0-21.7c6.3,3.6,12.4,7.1,18.9,10.8C174.6,398.4,168.6,401.9,162.1,405.7z"/>
		<path class="st0" d="M263.6,394.8c6.3-3.6,12.2-7.1,18.4-10.6c0,7.1,0,14,0,21.3C275.9,401.9,269.9,398.4,263.6,394.8z"/>
		<path class="st0" d="M97.6,442.9c0-7.4,0-14.3,0-21.7c6.3,3.6,12.4,7.1,18.8,10.8C110,435.7,104,439.2,97.6,442.9z"/>
		<path class="st0" d="M101.9,450.7c6.3-3.7,12.4-7.2,18.8-10.9c0,7.4,0,14.4,0,21.7C114.4,457.9,108.3,454.4,101.9,450.7z"/>
		<path class="st0" d="M65.3,424.2c0-7.3,0-14.3,0-21.6c6.3,3.6,12.4,7.2,18.7,10.8C77.6,417.1,71.6,420.6,65.3,424.2z"/>
		<path class="st0" d="M51.7,394.8c-6.1,3.5-11.9,6.9-17.6,10.2c-1.1,0.6-1.2,0.1-1.2-0.8c0-6.6,0-13.2,0-20.3
			C39.3,387.6,45.3,391.1,51.7,394.8z"/>
		<path class="st0" d="M83.9,301.5c-6,3.5-11.7,6.7-17.4,10.1c-1.3,0.7-1.4,0.2-1.4-0.9c0-6.1,0-12.1,0-18.2c0-1.2,0.1-1.8,1.5-1
			C72.3,294.8,77.9,298.1,83.9,301.5z"/>
		<path class="st0" d="M88.5,458.6c0,7.1,0,13.6,0,20.1c0,1-0.2,1.4-1.3,0.8c-5.7-3.3-11.4-6.5-17.4-10
			C76.1,465.7,82.1,462.3,88.5,458.6z"/>
		<path class="st0" d="M23.7,198.1c0,6.8,0,13.6,0,20.4c-0.5,0.4-0.8-0.1-1.2-0.3c-5.2-3-10.3-5.9-15.5-8.9
			c-0.6-0.3-2.2-0.7-0.3-1.7c5.5-3.1,11-6.3,16.5-9.5C23.2,198,23.4,198.1,23.7,198.1z"/>
		<path class="st0" d="M69.9,432.1c6.3-3.7,12.3-7.1,18.5-10.7c0,7,0,13.6,0,20.1c0,1-0.4,1-1.1,0.6
			C81.6,438.8,75.9,435.5,69.9,432.1z"/>
		<path class="st0" d="M37.7,264.2c6.2-3.6,12.1-7,18.2-10.5c0,7.1,0,13.8,0,20.9C49.8,271.2,43.9,267.8,37.7,264.2z"/>
		<path class="st0" d="M83.6,450.7c-6.2,3.6-12,6.9-18.1,10.4c0-7.1,0-13.8,0-20.9C71.5,443.8,77.5,447.2,83.6,450.7z"/>
		<path class="st0" d="M120.5,349.3c-6.1-3.5-12-6.9-18.1-10.4c6.1-3.5,12-6.9,18.1-10.4C120.5,335.4,120.5,342.1,120.5,349.3z"/>
		<path class="st0" d="M217.5,405.3c-6.2-3.6-12.1-7-18.3-10.6c6.2-3.6,12.1-7,18.3-10.5C217.5,391.4,217.5,398.2,217.5,405.3z"/>
		<path class="st0" d="M55.8,403.1c0,7,0,13.6,0,20.6c-6-3.4-11.7-6.8-17.9-10.3C43.9,409.9,49.7,406.6,55.8,403.1z"/>
		<path class="st0" d="M33.1,255.8c0-6.9,0-13.5,0-20.1c0.8-0.4,1.2,0.2,1.7,0.5c5,2.8,9.9,5.7,14.9,8.6c0.9,0.5,1.7,0.9,0.2,1.8
			c-5.3,3-10.6,6.1-15.9,9.2C33.8,255.7,33.6,255.7,33.1,255.8z"/>
		<path class="st0" d="M309.7,394.8c-6.2,3.6-12,6.9-18.2,10.5c0-6.9,0-13.3,0-19.7c0-1.1,0.4-1.1,1.3-0.6
			C298.3,388.2,303.8,391.4,309.7,394.8z"/>
		<path class="st0" d="M227,405.3c0-7.1,0-13.8,0-20.9c6.1,3.5,12,6.9,18.2,10.5C239,398.3,233.1,401.7,227,405.3z"/>
		<path class="st0" d="M309.7,432.1c-6.1,3.5-12,6.9-18.1,10.4c0-7.1,0-13.8,0-20.8C297.7,425.1,303.5,428.5,309.7,432.1z"/>
		<path class="st0" d="M33.3,459.1c6,3.5,11.7,6.7,17.8,10.3c-6,3.5-11.8,6.8-17.8,10.3C33.3,472.7,33.3,466.1,33.3,459.1z"/>
		<path class="st0" d="M134.9,357.5c6.1-3.5,11.8-6.8,17.8-10.2c0,6.9,0,13.5,0,20.5C146.8,364.3,141,361,134.9,357.5z"/>
		<path class="st0" d="M167.2,376.1c6.1-3.5,11.9-6.9,17.9-10.3c0,7,0,13.6,0,20.7C179,383,173.3,379.6,167.2,376.1z"/>
		<path class="st0" d="M1.9,50.3c-0.8-0.5-0.6-1.4-0.6-2.1c0-6,0-11.9,0-17.9c5.8,3.3,11.7,6.6,17.9,10.1
			C13.3,43.8,7.6,47.1,1.9,50.3z"/>
		<path class="st0" d="M291.9,459.2c5.9,3.4,11.5,6.7,17.5,10.1c-5.9,3.4-11.6,6.7-17.5,10.1C291.9,472.7,291.9,466.2,291.9,459.2z"
			/>
		<path class="st0" d="M23.6,32.2c-6.2-3.6-11.9-6.9-18-10.3c2.5-1.5,4.9-2.9,7.2-4.2c3-1.8,6.1-3.5,9.1-5.3c1-0.6,1.6-0.8,1.6,0.8
			C23.6,19.3,23.6,25.5,23.6,32.2z"/>
		<path class="st0" d="M1.8,87.6c-0.5-0.3-0.6-0.9-0.6-1.4c0-5.8,0-11.6,0-17.4c0-0.3,0.2-0.7,0.4-1c5.7,3.2,11.4,6.5,17.5,10
			C13.2,81.1,7.5,84.4,1.8,87.6z"/>
		<path class="st0" d="M23.5,405.1c-6-3.4-11.7-6.8-17.8-10.3c6.1-3.5,11.8-6.8,17.8-10.2C23.5,391.5,23.5,398.1,23.5,405.1z"/>
		<path class="st0" d="M277.1,376.1c-6.1,3.5-11.7,6.8-17.7,10.2c0-6.6,0-12.8,0-19c0-0.9,0.1-1.4,1.1-0.8
			C265.9,369.7,271.3,372.8,277.1,376.1z"/>
		<path class="st0" d="M1.8,162.2c-0.5-0.3-0.5-0.8-0.5-1.2c0-5.8,0-11.7,0-17.5c0-0.3,0.2-0.7,0.4-1c5.6,3.2,11.3,6.4,17.3,9.9
			C13.1,155.7,7.4,159,1.8,162.2z"/>
		<path class="st0" d="M23.6,69.4c-6.1-3.5-11.8-6.8-17.8-10.3c4.4-2.5,8.4-4.9,12.5-7.3c1.3-0.8,2.7-1.5,4-2.3
			c1.1-0.7,1.3-0.3,1.3,0.8C23.6,56.5,23.6,62.7,23.6,69.4z"/>
		<path class="st0" d="M38.1,450.7c5.9-3.4,11.6-6.7,17.6-10.2c0,6.9,0,13.4,0,20.3C49.8,457.5,44.1,454.2,38.1,450.7z"/>
		<path class="st0" d="M1.8,124.9c-0.7-0.5-0.5-1.2-0.5-1.9c0-5.2,0-10.4,0-15.6c0-0.8-0.4-1.8,0.9-1.9c5.4,3.1,10.9,6.2,16.7,9.5
			C13,118.4,7.4,121.7,1.8,124.9z"/>
		<path class="st0" d="M5.8,469.4c6.1-3.5,11.7-6.8,17.6-10.2c0,6.9,0,13.4,0,20.3C17.5,476.1,11.9,472.9,5.8,469.4z"/>
		<path class="st0" d="M194.9,386.2c0-6.9,0-13.3,0-20.2c5.9,3.4,11.5,6.6,17.5,10.1C206.4,379.5,200.8,382.8,194.9,386.2z"/>
		<path class="st0" d="M249.4,366.1c0,6.8,0,13.2,0,20c-5.8-3.3-11.3-6.5-17.3-10C238,372.8,243.5,369.5,249.4,366.1z"/>
		<path class="st0" d="M115.5,320.2c-4.4,2.5-8.5,4.9-12.6,7.3c-1.3,0.8-2.7,1.5-4,2.3c-0.7,0.4-1.1,0.3-1.1-0.6
			c0-6.2,0-12.5,0-19.2C103.9,313.5,109.5,316.7,115.5,320.2z"/>
		<path class="st0" d="M5.9,171c6-3.5,11.6-6.7,17.6-10.1c0,2.2,0,4,0,5.8c0,4.2,0,8.4,0,12.6c0,1.3-0.1,1.9-1.6,1
			C16.8,177.2,11.5,174.2,5.9,171z"/>
		<path class="st0" d="M314.1,423.4c-5.9-3.4-11.4-6.6-17.3-10c5.9-3.4,11.5-6.6,17.3-10C314.1,410.2,314.1,416.6,314.1,423.4z"/>
		<path class="st0" d="M23.5,86.3c0,6.5,0,12.6,0,18.7c0,1.8-1,0.8-1.6,0.5c-5.2-2.9-10.3-5.9-15.8-9.1C11.9,93,17.5,89.8,23.5,86.3
			z"/>
		<path class="st0" d="M296.8,376.1c5.8-3.4,11.3-6.5,16.8-9.7c0.8,0.7,0.4,1.5,0.4,2.2c0,5.1,0,10.3,0,15.4c0,1.4-0.1,2.1-1.7,1.1
			C307.4,382.2,302.3,379.2,296.8,376.1z"/>
		<path class="st0" d="M23.2,143.6c-5.7-3.3-11.2-6.5-17.1-9.8c5.8-3.3,11.3-6.5,17.1-9.9C23.2,130.5,23.2,136.8,23.2,143.6z"/>
		<path class="st0" d="M33.4,442.1c0-6.5,0-12.6,0-18.6c0-1.3,0.5-1.2,1.4-0.7c5.2,3,10.5,6,16,9.3
			C44.9,435.4,39.4,438.7,33.4,442.1z"/>
		<path class="st0" d="M162.8,367.3c0-6.8,0-13,0-19.6c5.7,3.3,11.2,6.4,17,9.8C174,360.8,168.5,364,162.8,367.3z"/>
		<path class="st0" d="M313.9,441c0,6.7,0,12.9,0,19.5c-5.7-3.3-11.1-6.4-17-9.7C302.7,447.4,308.2,444.3,313.9,441z"/>
		<path class="st0" d="M130.5,348.6c0-6.7,0-12.9,0-19.6c5.7,3.3,11.1,6.4,17,9.8C141.7,342.1,136.3,345.3,130.5,348.6z"/>
		<path class="st0" d="M23.1,441.7c-5.7-3.3-11.1-6.4-16.7-9.7c5.7-3.3,11.1-6.4,16.7-9.7C23.1,428.9,23.1,435.1,23.1,441.7z"/>
		<path class="st0" d="M1.7,460.3c-0.6-0.4-0.4-1.1-0.4-1.7c0-5.2,0-10.4,0-15.6c0-0.7-0.4-1.6,0.9-1.7c5.3,3.1,10.5,6.1,16,9.3
			C12.5,454,7.1,457.2,1.7,460.3z"/>
		<path class="st0" d="M50.4,21.8c-5.7,3.3-11.1,6.4-16.7,9.7c0-6.5,0-12.7,0-19.3C39.3,15.4,44.7,18.5,50.4,21.8z"/>
		<path class="st0" d="M87.6,273.4c0,6.5,0,12.6,0,19c-5.3-3.1-10.4-6-15.5-8.9c-0.9-0.5-0.6-0.9,0.1-1.3
			C77.3,279.3,82.3,276.4,87.6,273.4z"/>
		<path class="st0" d="M292,367.2c0-6.6,0-12.8,0-19.4c5.6,3.2,11,6.3,16.8,9.7C303.2,360.7,297.8,363.8,292,367.2z"/>
		<path class="st0" d="M3.2,422.1c-1.1,0.4-1.9,0.6-1.8-1.2c0.1-5.1,0-10.1,0.1-15.2c0-0.6-0.4-1.5,0.8-1.5c5.2,3,10.4,6.1,15.8,9.3
			C12.8,416.4,8,419.3,3.2,422.1z"/>
		<path class="st0" d="M33.8,198.9c5.5,3.2,10.7,6.2,16.3,9.4c-5.6,3.2-10.8,6.2-16.3,9.4C33.8,211.3,33.8,205.3,33.8,198.9z"/>
		<path class="st0" d="M264.9,357.5c5.3-3.1,10.2-5.9,15.1-8.7c0.7-0.4,1.6-1.2,1.6,0.5c0,5.8,0,11.6,0,17.8
			C275.9,363.8,270.6,360.8,264.9,357.5z"/>
		<path class="st0" d="M200.7,357.5c5.5-3.2,10.6-6.1,16-9.2c0,6.2,0,12.1,0,18.4C211.3,363.6,206.1,360.6,200.7,357.5z"/>
		<path class="st0" d="M227.8,348.4c5.2,3,10.3,5.9,15.8,9.1c-5.4,3.1-10.5,6.1-15.8,9.2C227.8,360.5,227.8,354.6,227.8,348.4z"/>
		<path class="st0" d="M39.2,226.9c5.5-3.1,10.6-6.1,16-9.2c0,6.2,0,12.1,0,18.5C49.9,233.1,44.7,230.1,39.2,226.9z"/>
		<path class="st0" d="M66.2,273.5c0-6.3,0-12.3,0-18.5c5.4,3.1,10.6,6.1,16,9.3C76.9,267.4,71.7,270.3,66.2,273.5z"/>
		<path class="st0" d="M33.8,49.9c5.5,3.1,10.5,6.1,15.9,9.2c-3.5,2-6.6,3.9-9.8,5.7c-1.5,0.9-3.1,1.7-4.6,2.6
			c-1,0.6-1.6,0.8-1.6-0.8C33.9,61.2,33.8,55.8,33.8,49.9z"/>
		<path class="st0" d="M313.3,347.7c-5.2-3-10.1-5.8-15.4-8.9c5.2-3,10.2-5.9,15.4-8.9C313.3,336,313.3,341.7,313.3,347.7z"/>
		<path class="st0" d="M104.1,301.5c5-2.9,9.7-5.6,14.5-8.4c1-0.6,1.2-0.1,1.2,0.8c0,5,0,10.1,0,15.1c0,1.3-0.5,1.2-1.4,0.7
			C113.8,307.1,109.1,304.4,104.1,301.5z"/>
		<path class="st0" d="M55,31.6c0,6.1,0,11.7,0,17.7c-5.1-3-10.1-5.8-15.3-8.8C44.9,37.4,49.8,34.6,55,31.6z"/>
		<path class="st0" d="M324.7,385.1c0-6.1,0-11.9,0-17.9c5.2,3,10.2,5.9,15.5,9C335,379.2,330,382,324.7,385.1z"/>
		<path class="st0" d="M168.9,338.8c5-2.9,9.6-5.5,14.1-8.1c0.9-0.5,1.4-0.5,1.3,0.7c0,5.3,0,10.6,0,16.3
			C179.1,344.7,174.1,341.9,168.9,338.8z"/>
		<path class="st0" d="M324.8,422.2c0-6,0-11.6,0-17.6c5.2,3,10.1,5.8,15.3,8.8C334.9,416.4,329.9,419.3,324.8,422.2z"/>
		<path class="st0" d="M49.3,171c-5.2,3-9.9,5.8-15,8.7c0-5.8,0-11.3,0-17.3C39.3,165.2,44.1,168,49.3,171z"/>
		<path class="st0" d="M136.7,320.2c5.2-3,10-5.8,15.2-8.8c0,2.4,0,4.4,0,6.4c0,3.1,0,6.3,0,9.4c0,0.7,0.3,1.8-1.1,1
			C146.2,325.6,141.6,323,136.7,320.2z"/>
		<path class="st0" d="M34.3,87.8c5,2.9,9.8,5.7,14.9,8.6c-5.1,2.9-9.9,5.7-14.9,8.6C34.3,99.2,34.3,93.7,34.3,87.8z"/>
		<path class="st0" d="M340,488c-5.2,3-10,5.8-15,8.6c0-5.8,0-11.3,0-17.2C330,482.2,334.8,485,340,488z"/>
		<path class="st0" d="M260.4,330.2c5,2.9,9.9,5.7,15,8.6c-5.1,2.9-9.9,5.7-15,8.7C260.4,341.6,260.4,336.1,260.4,330.2z"/>
		<path class="st0" d="M325.1,442.2c5,2.9,9.8,5.7,14.8,8.6c-5.1,2.9-9.8,5.7-14.8,8.5C325.1,453.5,325.1,448.1,325.1,442.2z"/>
		<path class="st0" d="M195.6,330.2c5.2,3,10,5.7,15,8.6c-4.8,2.8-9.4,5.4-13.9,8c-1.1,0.6-1.1,0-1.1-0.8
			C195.6,340.9,195.6,335.8,195.6,330.2z"/>
		<path class="st0" d="M233.9,338.8c5-2.9,9.7-5.6,14.6-8.4c0,5.7,0,11.1,0,16.9C243.6,344.4,239,341.7,233.9,338.8z"/>
		<path class="st0" d="M113.7,282.9c-5.1,2.9-9.8,5.7-14.8,8.5c0-5.8,0-11.3,0-17C103.9,277.2,108.6,279.9,113.7,282.9z"/>
		<path class="st0" d="M49,133.7c-5,2.9-9.7,5.6-14.5,8.4c0-5.7,0-11,0-16.8C39.3,128.1,43.9,130.8,49,133.7z"/>
		<path class="st0" d="M163.7,328.4c0-5.7,0-10.9,0-16.2c2.1,0.7,3.8,2,5.7,3c2.5,1.4,4.9,2.9,7.3,4.2c1,0.6,1,0.9,0,1.5
			C172.4,323.3,168.2,325.8,163.7,328.4z"/>
		<path class="st0" d="M331.1,394.8c4.9-2.8,9.4-5.4,14.2-8.2c0,5.5,0,10.8,0,16.4C340.5,400.2,336,397.6,331.1,394.8z"/>
		<path class="st0" d="M325.2,330.5c4.9,2.8,9.5,5.5,14.5,8.4c-4.9,2.9-9.6,5.5-14.5,8.4C325.2,341.5,325.2,336.2,325.2,330.5z"/>
		<path class="st0" d="M345.3,349.3c0,5.6,0,10.8,0,16.4c-4.8-2.7-9.3-5.4-14.2-8.2C336,354.7,340.5,352.1,345.3,349.3z"/>
		<path class="st0" d="M54.6,197.8c-4.8-2.8-9.3-5.4-14.2-8.2c4.8-2.8,9.4-5.4,14.2-8.2C54.6,187,54.6,192.2,54.6,197.8z"/>
		<path class="st0" d="M131.4,309.7c0-5.6,0-10.8,0-16.3c4.8,2.7,9.3,5.4,14.1,8.1C140.8,304.3,136.2,306.9,131.4,309.7z"/>
		<path class="st0" d="M307.3,320.2c-4.7,2.7-8.9,5.1-13.2,7.6c-0.6,0.3-1.3,0.9-1.4-0.4c0-5,0-10.1,0-15.5
			C297.7,314.7,302.3,317.3,307.3,320.2z"/>
		<path class="st0" d="M40.5,77.7c4.7-2.7,9.2-5.3,13.9-8c0,5.4,0,10.5,0,16C49.8,83.1,45.3,80.5,40.5,77.7z"/>
		<path class="st0" d="M280.6,328.2c-4.7-2.7-9.2-5.3-14-8c4.8-2.8,9.3-5.4,14-8.1C280.6,317.6,280.6,322.8,280.6,328.2z"/>
		<path class="st0" d="M345.1,440c-4.7-2.7-9-5.2-13.7-7.9c4.7-2.7,9-5.2,13.7-7.9C345.1,429.5,345.1,434.5,345.1,440z"/>
		<path class="st0" d="M215.8,312.5c0,5.3,0,10.2,0,15.4c-4.3-2.4-8.3-4.7-12.3-7.1c-1.1-0.7-0.4-1,0.3-1.4
			C207.7,317.2,211.6,314.9,215.8,312.5z"/>
		<path class="st0" d="M345.1,477.2c-4.7-2.7-9-5.2-13.6-7.8c4.6-2.7,9-5.2,13.6-7.8C345.1,466.8,345.1,471.8,345.1,477.2z"/>
		<path class="st0" d="M242,320.2c-4.7,2.7-8.9,5.1-13.4,7.7c0-5.2,0-10.1,0-15.4C233,315,237.3,317.5,242,320.2z"/>
		<path class="st0" d="M86.6,237.8c0,5.3,0,10.2,0,15.5c-4.5-2.6-8.7-5-13.4-7.7C77.8,243,82,240.5,86.6,237.8z"/>
		<path class="st0" d="M299.4,301.5c4.5-2.6,8.7-5.1,13.2-7.6c0,5.2,0,10,0,15.2C308.2,306.6,304,304.2,299.4,301.5z"/>
		<path class="st0" d="M67.1,234.6c0-5.2,0-10.1,0-15.3c4.5,2.6,8.8,5.1,13.3,7.7C75.9,229.5,71.6,232,67.1,234.6z"/>
		<path class="st0" d="M41.1,152.3c4.1-2.4,8-4.6,11.9-6.8c0.8-0.5,1.4-0.7,1.4,0.7c0,4.1,0,8.3,0,12.4c0,0.9-0.1,1.4-1.2,0.8
			C49.3,157,45.3,154.7,41.1,152.3z"/>
		<path class="st0" d="M54.4,122.7c-4.6-2.7-8.8-5.1-13.3-7.7c4.2-2.5,8.2-4.8,12.2-7.1c0.8-0.5,1.1-0.1,1.1,0.7
			C54.4,113.2,54.4,117.7,54.4,122.7z"/>
		<path class="st0" d="M344.9,327.6c-4.3-2.5-8.4-4.8-12.9-7.4c4.5-2.6,8.6-4.9,12.9-7.4C344.9,317.9,344.9,322.6,344.9,327.6z"/>
		<path class="st0" d="M79.9,40.4c-4.3,2.5-8.3,4.8-12.5,7.2c0-4.9,0-9.5,0-14.5C71.5,35.6,75.6,37.9,79.9,40.4z"/>
		<path class="st0" d="M338.4,301.5c-4.4,2.5-8.4,4.8-12.7,7.3c0-5,0-9.6,0-14.6C329.9,296.7,334,299,338.4,301.5z"/>
		<path class="st0" d="M261.1,294.2c4.3,2.5,8.3,4.8,12.6,7.3c-4.3,2.5-8.3,4.8-12.6,7.3C261.1,303.8,261.1,299.2,261.1,294.2z"/>
		<path class="st0" d="M183.3,294.3c0,5,0,9.5,0,14.4c-4.2-2.4-8.2-4.7-12.5-7.2C175,299.1,179,296.8,183.3,294.3z"/>
		<path class="st0" d="M305.8,282.9c-4.3,2.5-8.1,4.7-12.2,7c0-4.8,0-9.2,0-14C297.6,278.2,301.5,280.4,305.8,282.9z"/>
		<path class="st0" d="M235.5,301.5c4.2-2.4,8.1-4.7,12.4-7.2c0,4.7,0.1,9-0.1,13.3c0,1.3-1,0.3-1.5,0.1
			C242.8,305.8,239.3,303.7,235.5,301.5z"/>
		<path class="st0" d="M208.9,301.5c-4.1,2.4-8,4.6-12.4,7.1c0-4.6,0-8.9,0-13.1c0-1.1,0.6-0.8,1.2-0.4
			C201.4,297.2,205,299.3,208.9,301.5z"/>
		<path class="st0" d="M268,282.9c4.1-2.4,7.9-4.6,11.9-6.9c0,4.6,0,9,0,13.7C276,287.5,272.2,285.3,268,282.9z"/>
		<path class="st0" d="M86.2,14.8c0,4.8,0,9.3,0,14c-4.1-2.3-7.9-4.5-12.1-7C78.2,19.4,82.1,17.2,86.2,14.8z"/>
		<path class="st0" d="M118.4,271.1c-4.1-2.3-7.9-4.5-12-6.9c4.1-2.4,7.9-4.6,12-6.9C118.4,262,118.4,266.4,118.4,271.1z"/>
		<path class="st0" d="M150.7,276c0,4.7,0,9,0,13.7c-3.8-2.2-7.3-4.2-10.9-6.3c-0.9-0.5-0.5-0.9,0.2-1.3
			C143.5,280.2,146.9,278.2,150.7,276z"/>
		<path class="st0" d="M100.1,239.1c3.8,2.2,7.3,4.2,11.2,6.5c-3.8,2.2-7.4,4.3-11.2,6.5C100.1,247.7,100.1,243.6,100.1,239.1z"/>
		<path class="st0" d="M358.4,364.1c0-4.5,0-8.7,0-13.2c3.8,2.2,7.4,4.2,11.4,6.5C366,359.7,362.3,361.8,358.4,364.1z"/>
		<path class="st0" d="M358.4,401.3c0-4.5,0-8.6,0-13.1c3.9,2.2,7.5,4.3,11.4,6.5C365.9,397,362.3,399.1,358.4,401.3z"/>
		<path class="st0" d="M78.8,189.6c-3.8,2.2-7.2,4.1-10.8,6.3c0-4.2,0-8.2,0-12.5C71.6,185.4,75,187.4,78.8,189.6z"/>
		<path class="st0" d="M229.3,289.4c0-4.5,0-8.5,0-13c3.8,2.2,7.3,4.2,11.2,6.5C236.7,285.1,233.2,287.1,229.3,289.4z"/>
		<path class="st0" d="M261.6,270.6c0-4.4,0-8.4,0-12.7c3.7,2.1,7.2,4.2,11.1,6.4C268.9,266.4,265.4,268.4,261.6,270.6z"/>
		<path class="st0" d="M204,282.9c3.9-2.2,7.4-4.2,11.2-6.4c0,4.2,0,7.9,0,11.6c0,0.9-0.4,1-1.1,0.6
			C210.9,286.8,207.6,285,204,282.9z"/>
		<path class="st0" d="M369.5,432.1c-3.7,2.2-7.1,4.1-10.7,6.2c0-4.2,0-8.1,0-12.4C362.3,427.9,365.7,429.9,369.5,432.1z"/>
		<path class="st0" d="M164.7,289.4c0-4.2,0-8,0-11.8c0-1,0.5-0.9,1.2-0.5c3.2,1.9,6.5,3.7,10.1,5.8
			C172.1,285.1,168.6,287.1,164.7,289.4z"/>
		<path class="st0" d="M311.9,257.8c0,4.4,0,8.4,0,12.8c-3.7-2.1-7.3-4.2-11.1-6.4C304.6,262.1,308.2,260,311.9,257.8z"/>
		<path class="st0" d="M236.6,264.2c3.6-2.1,7-4.1,10.8-6.2c0,4,0,7.5,0,11.1c0,1.1-0.4,1.1-1.2,0.6
			C243,267.9,239.9,266.2,236.6,264.2z"/>
		<path class="st0" d="M344.2,276.6c0,4.3,0,8.2,0,12.5c-3.4-1.9-6.5-3.8-9.7-5.6c-1-0.6-0.8-0.9,0.1-1.4
			C337.7,280.4,340.7,278.6,344.2,276.6z"/>
		<path class="st0" d="M279.5,251.7c-3.5-2-6.9-3.9-10.6-6.1c3.7-2.1,7-4,10.6-6.1C279.5,243.7,279.5,247.5,279.5,251.7z"/>
		<path class="st0" d="M143.2,264.2c-3.6,2.1-7,4-10.8,6.2c0-4,0-7.6,0-11.2c0-1,0.5-0.9,1.2-0.5
			C136.7,260.5,139.9,262.3,143.2,264.2z"/>
		<path class="st0" d="M85.7,202.2c0,4.2,0,8,0,12.1c-3.3-1.9-6.5-3.7-9.6-5.5c-0.8-0.4-0.4-0.8,0.1-1.2
			C79.3,205.9,82.4,204.1,85.7,202.2z"/>
		<path class="st0" d="M358.8,326.2c0-4.2,0-7.9,0-12.1c3.5,2,6.8,3.9,10.5,6C365.6,322.3,362.3,324.2,358.8,326.2z"/>
		<path class="st0" d="M68,71.7c3.6,2,6.9,4,10.5,6c-3.6,2.1-6.9,4-10.5,6.1C68,79.6,68,75.8,68,71.7z"/>
		<path class="st0" d="M294.1,239.6c3.4,1.9,6.4,3.7,9.4,5.4c0.9,0.5,0.5,0.9-0.1,1.3c-2.7,1.5-5.3,3-8,4.6
			c-0.9,0.6-1.4,0.5-1.4-0.7C294.2,246.8,294.1,243.4,294.1,239.6z"/>
		<path class="st0" d="M326.6,258.4c3.4,2,6.7,3.9,10.2,5.9c-3.5,2-6.7,3.9-10.2,5.9C326.6,266.1,326.6,262.4,326.6,258.4z"/>
		<path class="st0" d="M358.8,475.2c0-4.1,0-7.7,0-11.7c3.5,2,6.7,3.8,10.2,5.9C365.5,471.4,362.3,473.2,358.8,475.2z"/>
		<path class="st0" d="M376.1,381.8c-3.3-1.9-6.4-3.6-9.8-5.6c3.4-2,6.5-3.8,9.8-5.7C376.1,374.3,376.1,377.9,376.1,381.8z"/>
		<path class="st0" d="M85.5,53.4c0,3.9,0,7.4,0,11.3c-3.3-1.9-6.4-3.7-9.8-5.6C78.9,57.2,82,55.4,85.5,53.4z"/>
		<path class="st0" d="M68.5,146.9c3.2,1.8,6.1,3.5,9.5,5.4c-3.2,1.9-6.2,3.6-9.5,5.5C68.5,154.1,68.5,150.7,68.5,146.9z"/>
		<path class="st0" d="M229.7,239.9c3.4,2,6.4,3.7,9.8,5.7c-3.1,1.8-6,3.5-8.9,5.2c-0.7,0.4-1,0.1-1-0.6
			C229.7,246.8,229.7,243.6,229.7,239.9z"/>
		<path class="st0" d="M182.2,269.7c-3.2-1.9-6.2-3.6-9.5-5.5c3.2-1.9,6.2-3.6,9.5-5.5C182.2,262.5,182.2,265.9,182.2,269.7z"/>
		<path class="st0" d="M197.5,258.6c3.3,1.9,6.4,3.7,9.7,5.6c-3.3,1.9-6.4,3.7-9.7,5.6C197.5,266,197.5,262.5,197.5,258.6z"/>
		<path class="st0" d="M271.7,226.9c-3.3,1.9-6.3,3.6-9.6,5.5c0-3.7,0-7.1,0-11C265.4,223.3,268.4,225,271.7,226.9z"/>
		<path class="st0" d="M375.9,344.3c-3.2-1.9-6.2-3.6-9.5-5.5c3.2-1.9,6.2-3.6,9.5-5.5C375.9,337.1,375.9,340.5,375.9,344.3z"/>
		<path class="st0" d="M376,407.9c0,3.8,0,7.2,0,10.9c-3.2-1.8-6.1-3.5-9.5-5.4C369.7,411.6,372.7,409.9,376,407.9z"/>
		<path class="st0" d="M214.4,240.3c0,3.7,0,6.9,0,10.6c-2.9-1.7-5.7-3.2-8.3-4.8c-0.8-0.5-0.2-0.8,0.3-1.1
			C209,243.4,211.5,242,214.4,240.3z"/>
		<path class="st0" d="M246.7,221.6c0,3.7,0,6.9,0,10.6c-3.1-1.8-5.9-3.4-9.1-5.2C240.7,225.1,243.5,223.5,246.7,221.6z"/>
		<path class="st0" d="M77.8,115.1c-3.3,1.9-6.2,3.6-9.5,5.5c0-3.5,0-6.6,0-9.7c0-1.3,0.7-0.8,1.3-0.4
			C72.3,111.8,74.8,113.3,77.8,115.1z"/>
		<path class="st0" d="M100.8,27.1c0-3.7,0-7,0-10.6c3.1,1.8,6,3.5,9.2,5.3C106.8,23.6,103.9,25.3,100.8,27.1z"/>
		<path class="st0" d="M311.4,232.1c-3.2-1.8-6-3.5-9.1-5.2c2.8-1.6,5.3-3.1,7.9-4.6c1-0.6,1.2-0.2,1.2,0.7
			C311.4,225.9,311.4,228.8,311.4,232.1z"/>
		<path class="st0" d="M376,455.9c-3.2-1.8-5.9-3.4-9-5.2c2.8-1.6,5.4-3.1,7.9-4.6c1.1-0.7,1.1,0,1.1,0.8
			C376,449.8,376,452.6,376,455.9z"/>
		<path class="st0" d="M359.3,277.8c3,1.7,5.7,3.3,8.8,5.1c-3.1,1.8-5.8,3.3-8.8,5.1C359.3,284.5,359.3,281.4,359.3,277.8z"/>
		<path class="st0" d="M367.1,301.6c3-1.7,5.7-3.3,8.6-5c0,3.4,0,6.4,0,9.9C372.9,304.8,370.1,303.3,367.1,301.6z"/>
		<path class="st0" d="M334.9,245.6c3-1.7,5.6-3.2,8.4-4.8c0,3.2,0,6.2,0,9.6C340.5,248.8,337.9,247.3,334.9,245.6z"/>
		<path class="st0" d="M108.7,226.9c3-1.7,5.7-3.3,8.6-4.9c0,3.4,0,6.5,0,9.9C114.4,230.2,111.7,228.7,108.7,226.9z"/>
		<path class="st0" d="M85.1,166c0,3.1-0.1,5.6,0,8.1c0.1,1.6-0.5,1.6-1.7,0.9c-2.2-1.3-4.4-2.5-6.9-4.1
			C79.4,169.3,82.1,167.8,85.1,166z"/>
		<path class="st0" d="M149.7,240.7c0,3.4,0,6.4,0,9.8c-2.6-1.5-5-2.9-7.5-4.2c-0.8-0.5-0.7-0.9,0-1.3
			C144.6,243.6,147,242.2,149.7,240.7z"/>
		<path class="st0" d="M278.7,203.5c0,3.3,0,6.2,0,9.5c-2.6-1.5-5-2.8-7.3-4.2c-0.7-0.4-0.5-0.8,0.1-1.2
			C273.8,206.3,276.1,205,278.7,203.5z"/>
		<path class="st0" d="M165.8,240.9c2.5,1.4,4.8,2.7,7.1,4c0.7,0.4,0.9,0.9,0.1,1.3c-2.3,1.3-4.6,2.6-7.1,4
			C165.8,247.1,165.8,244.1,165.8,240.9z"/>
		<path class="st0" d="M327.4,231.4c0-3.1,0-5.9,0-9c2.7,1.5,5.1,2.9,7.8,4.5C332.5,228.4,330.1,229.8,327.4,231.4z"/>
		<path class="st0" d="M375.5,483.3c0,3.2,0,6.1,0,9.3c-2.7-1.5-5.2-3-8.2-4.7C370.2,486.4,372.7,484.9,375.5,483.3z"/>
		<path class="st0" d="M295.1,212.8c0-3.2,0-5.9,0-9c2.4,1.4,4.5,2.6,6.7,3.8c0.8,0.4,0.8,0.8,0,1.3
			C299.6,210.2,297.5,211.4,295.1,212.8z"/>
		<path class="st0" d="M109.2,208.3c-2.9,1.7-5.3,3.1-8,4.6c0-3.1,0-5.9,0-9.2C103.9,205.2,106.3,206.6,109.2,208.3z"/>
		<path class="st0" d="M84.8,101c-2.8-1.6-5.2-3-7.9-4.6c2.8-1.6,5.2-3,7.9-4.6C84.8,95,84.8,97.8,84.8,101z"/>
		<path class="st0" d="M205.9,226.9c-2.8,1.6-5.2,3-7.8,4.4c0-3,0-5.7,0-8.9C200.8,224,203.2,225.4,205.9,226.9z"/>
		<path class="st0" d="M230.5,204c2.4,1.3,4.3,2.5,6.3,3.6c0.9,0.5,0.8,1-0.1,1.4c-1.7,0.9-3.4,1.9-5,2.9c-1,0.6-1.3,0.4-1.3-0.8
			C230.6,208.9,230.5,206.7,230.5,204z"/>
		<path class="st0" d="M77.1,133.7c2.6-1.5,5-2.9,7.6-4.4c0,3,0,5.6,0,8.7C82.2,136.6,79.8,135.3,77.1,133.7z"/>
		<path class="st0" d="M133.7,231.1c0-2.9,0-5.4,0-8.4c2.5,1.4,4.7,2.7,7.3,4.2C138.5,228.4,136.3,229.6,133.7,231.1z"/>
		<path class="st0" d="M392.2,380.2c0-2.9,0-5.3,0-8.1c2.4,1.4,4.6,2.7,7,4.1C396.8,377.5,394.6,378.8,392.2,380.2z"/>
		<path class="st0" d="M181.4,231c-2.4-1.4-4.7-2.7-7.1-4.1c2.4-1.4,4.7-2.7,7.1-4.1C181.4,225.7,181.4,228.2,181.4,231z"/>
		<path class="st0" d="M360,249.5c0-2.8,0-5.1,0-7.8c2.3,1.3,4.3,2.5,6.8,3.9C364.4,246.9,362.4,248.1,360,249.5z"/>
		<path class="st0" d="M213.7,204.4c0,2.8,0,5.1,0,7.8c-2.1-1.2-4-2.2-5.9-3.3c-0.9-0.5-0.4-0.9,0.2-1.3
			C209.8,206.6,211.6,205.6,213.7,204.4z"/>
		<path class="st0" d="M495.8,469.4c-2.2,1.3-4.2,2.5-6.7,3.9c0-2.5,0-4.5,0-6.6c0-1,0.5-0.9,1.1-0.6
			C492,467.1,493.8,468.2,495.8,469.4z"/>
		<path class="st0" d="M375.2,268.1c-2.4-1.3-4.4-2.5-6.8-3.8c2-1.2,3.8-2.2,5.6-3.3c0.7-0.4,1.1-0.4,1.1,0.6
			C375.2,263.6,375.2,265.7,375.2,268.1z"/>
		<path class="st0" d="M263.1,185.9c2.3,1.3,4.2,2.4,6.4,3.7c-2.2,1.3-4.1,2.4-6.2,3.7C262.9,190.8,263.2,188.6,263.1,185.9z"/>
		<path class="st0" d="M108.3,59.1c-2.3,1.4-4.3,2.5-6.7,3.9c0-2.4,0-4.4,0-6.4c0-0.8,0.3-1.1,1.1-0.7
			C104.4,56.9,106.2,57.9,108.3,59.1z"/>
		<path class="st0" d="M392.4,417.2c0-2.6,0-4.8,0-7.5c2.2,1.3,4.2,2.4,6.5,3.7C396.6,414.8,394.6,415.9,392.4,417.2z"/>
		<path class="st0" d="M392.4,335.1c2.2,1.3,4.2,2.4,6.5,3.8c-2.3,1.3-4.3,2.5-6.5,3.8C392.4,340,392.4,337.7,392.4,335.1z"/>
		<path class="st0" d="M245.6,193.1c-2.1-1.2-3.9-2.3-6-3.5c2.1-1.2,3.9-2.3,6-3.4C245.6,188.5,245.6,190.6,245.6,193.1z"/>
		<path class="st0" d="M116.7,44.1c-2.2-1.3-4.1-2.3-6.2-3.5c1.7-1.5,3.6-2.3,5.3-3.3c0.7-0.5,0.9,0,0.9,0.7
			C116.7,39.9,116.7,41.8,116.7,44.1z"/>
		<path class="st0" d="M392.4,447.1c2.2,1.3,4,2.3,6.3,3.6c-2,1.1-3.7,2.1-5.4,3.1c-0.8,0.4-0.9-0.2-0.9-0.8
			C392.4,451.2,392.4,449.4,392.4,447.1z"/>
		<path class="st0" d="M342.5,204.9c0,2.4,0,4.3,0,6.5c-2-0.6-3.6-1.9-5.5-2.9C338.5,206.9,340.5,206.2,342.5,204.9z"/>
		<path class="st0" d="M101.9,167.6c2,1.1,3.7,2.1,5.7,3.3c-1.8,1.5-3.7,2.4-5.7,3.4C101.9,172.1,101.9,170.1,101.9,167.6z"/>
		<path class="st0" d="M457.2,491.3c0-2.3,0-4.2,0-6.4c2,0.8,3.6,1.8,5.6,3.1C460.9,489.2,459.3,490.1,457.2,491.3z"/>
		<path class="st0" d="M392.4,298.1c2.2,1.2,4,2.3,6.1,3.5c-1.9,1.1-3.4,1.9-5,2.9c-0.8,0.5-1.1,0.1-1.1-0.7
			C392.4,302,392.4,300.2,392.4,298.1z"/>
		<path class="st0" d="M110.5,189.6c1.8-1,3.3-1.8,4.7-2.7c0.9-0.5,1.4-0.5,1.4,0.7c0,1.7,0,3.3,0,5.4
			C114.5,191.9,112.7,190.9,110.5,189.6z"/>
		<path class="st0" d="M392.7,485.1c0.3,0,0.4-0.1,0.5,0c1.5,1,4.5,1.7,4.3,2.9c-0.3,1.7-3,2.1-4.8,3.4
			C392.7,489,392.7,487.1,392.7,485.1z"/>
		<path class="st0" d="M465.9,469.4c2-1.2,3.8-2.2,5.5-3.2c0.2,0.2,0.4,0.3,0.4,0.4c0,1.9,0.4,3.9-0.2,5.8
			C469.5,471.8,467.9,470.5,465.9,469.4z"/>
		<path class="st0" d="M407,391.6c0,2.3,0,4.1,0,6.3c-1.9-1.1-3.6-2-5.5-3.2C403.4,393.7,405,392.7,407,391.6z"/>
		<path class="st0" d="M401.6,357.4c1.6-0.9,3-1.8,4.4-2.6c0.7-0.4,1.2-0.3,1.1,0.7c0,0.1,0,0.2,0,0.2c-0.2,1.5,0.5,4.4-0.3,4.4
			C405,360.2,403.4,358.6,401.6,357.4z"/>
		<path class="st0" d="M148.8,205c0,2.1,0,3.8,0,5.4c0,0.9-0.4,1.1-1.1,0.6c-0.1,0-0.1-0.1-0.2-0.1c-1.3-0.9-3.9-1.6-3.7-2.5
			C144.3,206.7,146.7,206.3,148.8,205z"/>
		<path class="st0" d="M310,192.8c-1.9-1.1-3.6-2.1-5.6-3.2c1.9-1.1,3.6-2.1,5.6-3.2C310,188.6,310,190.5,310,192.8z"/>
		<path class="st0" d="M166.6,205.3c1.9,0.7,3.5,1.8,5.1,2.8c-0.2,0.3-0.2,0.5-0.4,0.6c-1.5,0.8-3.5,2.9-4.4,2.1
			C165.7,209.8,166.5,207.4,166.6,205.3z"/>
		<path class="st0" d="M401.7,432c1.8-1,3.4-1.9,4.9-2.8c0.2,0.3,0.3,0.5,0.3,0.6c-0.1,1.6,0.7,4.3-0.3,4.6
			C405.1,434.9,403.5,433.1,401.7,432z"/>
		<path class="st0" d="M494.6,432c-1.7,1.2-3.5,3.1-4.6,2.4c-1.2-0.7-0.2-3.2-0.5-5.1C491.5,429.9,492.9,431,494.6,432z"/>
		<path class="st0" d="M203.9,189.5c-0.3,0.3-0.4,0.4-0.6,0.5c-1.4,0.6-3,2.6-4,1.9c-1-0.7-0.3-3.1-0.3-4.9
			C200.9,187.5,202.2,188.7,203.9,189.5z"/>
		<path class="st0" d="M401.8,320.2c1.9-1.1,3.3-1.9,5.1-2.9c0.2,2,0.2,3.7-0.1,5.8C405.1,322.1,403.6,321.2,401.8,320.2z"/>
		<path class="st0" d="M277.5,168.2c0,2,0,3.6,0,5.1c-0.1,0-0.3,0.1-0.4,0.1c-1.3-0.7-3.6-1.3-3.6-2.3
			C273.6,169.6,276,169.4,277.5,168.2z"/>
		<path class="st0" d="M457.5,453.5c-0.1-2-0.8-4.4,0.3-5c1.1-0.6,2.7,1.3,4.5,2.1C460.8,451.9,459.2,452.6,457.5,453.5z"/>
		<path class="st0" d="M401.9,469.3c1.6-0.9,3.1-1.8,4.6-2.6c0.2,0.2,0.4,0.3,0.4,0.4c0,1.6,0.8,4.1-0.4,4.6
			C405.2,472.2,403.5,470.4,401.9,469.3z"/>
		<path class="st0" d="M107.1,96.5c-1.7,1-3.2,1.8-4.9,2.7c-0.2-2-0.2-3.7,0-5.5C103.9,94.4,105.4,95.3,107.1,96.5z"/>
		<path class="st0" d="M139.4,189.6c-1.8,1-3.2,1.8-4.9,2.7c0-1.9,0-3.5,0-5.5C136.2,187.8,137.6,188.6,139.4,189.6z"/>
		<path class="st0" d="M369.7,226.9c1.8-1,3.1-1.8,4.8-2.7c0,1.9,0,3.5,0,5.4C372.9,228.7,371.4,227.9,369.7,226.9z"/>
		<path class="st0" d="M102.2,136.5c-0.2-2-0.2-3.6,0-5.4c1.7,0.7,3.2,1.5,4.7,2.8C105.3,134.7,103.8,135.5,102.2,136.5z"/>
		<path class="st0" d="M439.3,488.1c-0.3,0.8,0.5,1.9-0.6,2.4c-0.3,0.2-3.9-2.2-3.9-2.5c0-0.3,3.6-2.7,3.9-2.5
			C439.9,486.1,438.9,487.3,439.3,488.1z"/>
		<path class="st0" d="M430.1,469.3c-1.9,1-3.3,1.8-4.7,2.6c-0.2-1.8-0.9-4.1,0.2-4.6C426.7,466.7,428.2,468.6,430.1,469.3z"/>
		<path class="st0" d="M490,173.6c0-1.9,0-3.2,0-4.8c1.6,0.3,2.7,1.2,4.3,2.2C492.8,171.9,491.5,172.6,490,173.6z"/>
		<path class="st0" d="M328.4,186.9c1.7,1,3.1,1.8,4.7,2.8c-1.7,1-3.1,1.8-4.7,2.7C328.4,190.5,328.4,188.9,328.4,186.9z"/>
		<path class="st0" d="M392.9,267c0-1.9,0-3.4,0-5.1c1.7,0.4,3,1.5,4.7,2.4C396,265.2,394.7,266,392.9,267z"/>
		<path class="st0" d="M406.5,285c-1.5-0.4-3.5-1-3.5-2.1c0-1.3,2.2-1.4,3.5-2.6C406.5,282.1,406.5,283.5,406.5,285z"/>
		<path class="st0" d="M134.8,38.1c1.4,0.8,2.6,1.5,3.9,2.2c-1.1,1.2-2.5,1.7-3.9,2.5C134.8,41.2,134.8,39.9,134.8,38.1z"/>
		<path class="st0" d="M425.5,429.6c1.5,0.9,2.7,1.6,4.1,2.4c-1.5,0.8-2.7,1.6-4.1,2.4C425.5,432.8,425.5,431.4,425.5,429.6z"/>
		<path class="st0" d="M111.5,77.7c1.7-0.9,2.9-1.7,4.5-2.5c0,1.8,0,3.3,0,4.9C114.3,79.7,113.2,78.6,111.5,77.7z"/>
		<path class="st0" d="M111.8,152.3c0.2-0.2,0.3-0.3,0.4-0.4c1.2-0.6,2.7-2.2,3.5-1.7c1.1,0.8,0.3,2.7,0.4,4.4
			C114.3,154.1,113.1,153.2,111.8,152.3z"/>
		<path class="st0" d="M471.3,434.5c-1.6-0.5-2.9-1.4-4.5-2.5c1.5-0.9,2.8-1.6,4.4-2.5C471.6,431.3,471.5,432.8,471.3,434.5z"/>
		<path class="st0" d="M360.6,206.1c0.9-0.2,1.3,0.2,1.8,0.6c0.7,0.5,2.1,0.6,2.1,1.5c0.1,1-1.3,1-2,1.6c-1.8,1.4-2.1,0.5-1.9-1.2
			C360.7,207.8,360.6,206.9,360.6,206.1z"/>
		<path class="st0" d="M438.9,453.3c-1.5-0.9-2.8-1.6-4.2-2.4c1.3-1.1,2.6-1.8,4.2-2.5C438.9,450,438.9,451.4,438.9,453.3z"/>
		<path class="st0" d="M180.6,187.3c0.2,1.6,0.2,3.1,0,4.8c-1.6-0.6-2.9-1.5-4.4-2.4C177.6,188.7,178.9,187.8,180.6,187.3z"/>
		<path class="st0" d="M296.1,168.8c0.2,0,0.3-0.1,0.3-0.1c1.3,0.6,3.4,1.2,3.4,2.2c-0.1,1.3-2.2,1.6-3.7,2.5
			C296,171.7,296,170.3,296.1,168.8z"/>
		<path class="st0" d="M148.2,19.5c0,1.6,0,2.9,0,4.4c-1.5-0.2-2.5-1.3-4-1.9C145.3,20.7,146.7,20.2,148.2,19.5z"/>
		<path class="st0" d="M471,135.9c-1.3-0.7-2.3-1.3-3.5-2c0.9-1.2,2.2-1.6,3.5-2.4C471,133,471,134.3,471,135.9z"/>
		<path class="st0" d="M435,413.4c1.5-0.8,2.6-2.2,3.4-1.7c1,0.6,0.3,2.3,0.4,3.9C437.5,414.9,436.4,414.2,435,413.4z"/>
		<path class="st0" d="M212.6,172.9c-0.1,0-0.2,0.1-0.3,0.1c-1.1-0.6-3-0.9-3-2c0-1.1,1.9-1.4,3.2-2.2
			C212.6,170.3,212.6,171.6,212.6,172.9z"/>
		<path class="st0" d="M231.8,173.3c-0.2-0.4-0.2-0.5-0.2-0.5c0-1.3-0.7-3.3,0.3-3.8c1-0.5,2.4,1,3.9,2
			C234.3,171.9,233.1,172.6,231.8,173.3z"/>
		<path class="st0" d="M490.1,131.6c1.5,0.4,2.5,1.3,3.6,2c-0.2,0.3-0.3,0.5-0.4,0.5c-1.1,0.5-2.3,2-3.1,1.3
			C489.5,134.8,489.9,133,490.1,131.6z"/>
		<path class="st0" d="M167.2,169.2c1.3,0.4,2.9,0.8,2.9,1.8c0,1-1.6,1.4-2.9,1.8C167.2,171.5,167.2,170.4,167.2,169.2z"/>
		<path class="st0" d="M490.2,396.7c0-1.5,0-2.6,0-3.8c1.4,0.2,2.2,1.1,3.4,1.7C492.7,395.7,491.5,396.2,490.2,396.7z"/>
		<path class="st0" d="M461.5,413.6c-1.4,0.4-2.3,2.1-3.6,1.2c-0.5-0.3-0.2-2.8,0-2.9C459.3,411.5,460.3,412.7,461.5,413.6z"/>
		<path class="st0" d="M425.7,396.7c-0.3-1.3-0.2-2.5,0-3.8c1.4,0.2,2.3,1.1,3.5,1.8C428,395.7,426.9,396.3,425.7,396.7z"/>
		<path class="st0" d="M341.7,169c0.1,1.5,0.2,2.5-0.1,3.7c-1-0.5-2.6-0.7-2.6-1.8C339,170,340.6,169.8,341.7,169z"/>
		<path class="st0" d="M490.2,210.1c-0.1-1.3-0.2-2.4,0.1-3.7c1.1,0.5,2.8,0.8,2.8,1.9C493.2,209.2,491.5,209.6,490.2,210.1z"/>
		<path class="st0" d="M393.3,228.7c0-1.3-0.2-2.4,0.2-3.5c1.1,0.4,2.1,0.9,2.9,1.8C395.5,227.7,394.6,228.3,393.3,228.7z"/>
		<path class="st0" d="M425.7,359.5c-0.3-1.5-0.3-2.6,0-3.8c1.3,0.1,2.1,1.1,3.4,1.6C428.1,358.4,427,358.8,425.7,359.5z"/>
		<path class="st0" d="M112.1,115c1.3-0.6,2.3-2.1,3.4-1.5c0.6,0.3,0.6,2.7,0,3.1C114.4,117.1,113.4,115.7,112.1,115z"/>
		<path class="st0" d="M458,150.7c1.3,0.3,2.1,0.9,3.1,1.6c-1,0.7-1.9,1.4-3.1,1.7C458,152.8,458,151.8,458,150.7z"/>
		<path class="st0" d="M148,173.1c-1.2-1-3-1.1-2.9-2.2c0.1-0.9,1.6-1.3,2.7-1.7C148.2,170.4,148,171.5,148,173.1z"/>
		<path class="st0" d="M458.1,113.4c1.2,0.3,2,0.9,2.9,1.6c-0.7,0.9-1.8,1.2-2.9,1.9C458.1,115.6,458.1,114.6,458.1,113.4z"/>
		<path class="st0" d="M471.2,173.2c-1.5-1-3-1.1-3.1-2.4c0-0.4,1.8-1.6,2.3-1.4C471.8,170,470.7,171.5,471.2,173.2z"/>
		<path class="st0" d="M135.1,150.6c1.1,0.6,1.9,1.1,2.9,1.6c-0.9,0.9-1.7,1.4-2.9,1.8C135.1,152.9,135.1,151.9,135.1,150.6z"/>
		<path class="st0" d="M428.7,320.1c-1,1-1.9,1.4-3,1.8c0-1.2,0-2.2,0-3.2C426.9,318.7,427.6,319.5,428.7,320.1z"/>
		<path class="st0" d="M373.8,188c0,1.2,0,2,0,3c-1.1,0-1.9-0.7-2.8-1.4C372,189,372.8,188.5,373.8,188z"/>
		<path class="st0" d="M490.4,98c0-1.2,0-2.1,0-3.1c1.2,0,1.9,0.8,3,1.3C492.4,97.1,491.6,97.6,490.4,98z"/>
		<path class="st0" d="M438.5,116.5c-1.2-0.3-1.9-0.7-2.8-1.5c0.9-0.5,1.7-1,2.6-1.6C438.7,114.5,438.6,115.4,438.5,116.5z"/>
		<path class="st0" d="M438.4,337.4c0.3,0.9,0.2,1.8,0.1,2.8c-1.1-0.1-1.9-0.8-2.7-1.4C436.6,338.1,437.4,337.5,438.4,337.4z"/>
		<path class="st0" d="M470.7,393c0.4,1.3,0.3,2.3,0.1,3.4c-1.2-0.1-2-0.8-3.1-1.7C468.8,394.1,469.7,393.6,470.7,393z"/>
		<path class="st0" d="M435.6,376.2c0.9-0.9,1.8-1.3,3-1.8c0,1.2,0,2.1,0,3.2C437.4,377.6,436.6,376.8,435.6,376.2z"/>
		<path class="st0" d="M406.1,243.9c0.5,1.2,0.3,2.1,0.2,3.2c-1.2-0.1-1.9-0.8-3-1.5C404.3,244.9,405.1,244.4,406.1,243.9z"/>
		<path class="st0" d="M458.2,191.1c0-1,0-1.8,0-2.8c1.1,0.1,1.8,0.8,2.7,1.3C460,190.3,459.2,190.8,458.2,191.1z"/>
		<path class="st0" d="M470.8,94.9c0.3,1,0.6,2.4,0,2.8c-0.9,0.6-1.7-0.7-2.7-1.1C468.8,95.6,469.7,95.2,470.8,94.9z"/>
		<path class="st0" d="M490.5,20.5c1,0.2,1.8,0.6,2.5,1.4c-0.8,0.4-1.5,0.8-2.3,1.3C490.2,22.3,490.4,21.4,490.5,20.5z"/>
		<path class="st0" d="M460.7,77.7c-0.9,0.7-1.5,1.2-2.4,1.3c-0.4-0.8-0.2-1.6-0.1-2.6C459.2,76.6,459.9,77.1,460.7,77.7z"/>
		<path class="st0" d="M135.2,76.4c1,0.3,1.7,0.7,2.3,1.3c-0.5,0.8-1.3,1.2-2.2,1.4C135,78.2,135.2,77.4,135.2,76.4z"/>
		<path class="st0" d="M267.4,152.2c-1.1,0.8-2,1.5-3.1,1.7c-0.2-1-0.6-2.4,0.1-2.8C265.4,150.5,266.2,151.8,267.4,152.2z"/>
		<path class="st0" d="M438.4,153.8c-1-0.4-1.8-0.8-2.4-1.5c0.6-0.7,1.4-1.1,2.4-1.3C438.4,151.9,438.4,152.7,438.4,153.8z"/>
		<path class="st0" d="M244.7,153.9c-1.2-0.4-2.1-0.9-2.8-1.6c0.8-0.6,1.7-1.6,2.5-1.3C245.3,151.4,244.7,152.8,244.7,153.9z"/>
		<path class="st0" d="M470.7,206.9c0.3,0.9,0.3,1.8,0,2.7c-0.9-0.2-2.1-0.5-2.1-1.4C468.5,207.4,469.7,207.1,470.7,206.9z"/>
		<path class="st0" d="M177.5,152.2c0.8-0.4,1.5-0.8,2.3-1.1c0.5,0.9,0.2,1.7,0.3,2.6C178.9,153.4,178.2,153,177.5,152.2z"/>
		<path class="st0" d="M331.7,152.3c-1,0.6-1.7,1-2.6,1.4c0-1,0-1.7,0-2.5C330,151,330.6,151.8,331.7,152.3z"/>
		<path class="st0" d="M470.6,358.7c-0.9-0.2-1.6-0.5-2.1-1.4c0.7-0.4,1.3-0.7,2.1-1.2C470.6,357.1,470.6,357.9,470.6,358.7z"/>
		<path class="st0" d="M147.6,132.1c0,1.3,0,1.9,0,2.6c-0.9,0.2-1.4-0.4-2-0.8C145.8,132.9,146.8,133,147.6,132.1z"/>
		<path class="st0" d="M470.7,23.2c-1-0.5-1.6-0.9-2.2-1.2c0.3-0.9,1.2-1,2.1-1.6C470.6,21.4,470.6,22.1,470.7,23.2z"/>
		<path class="st0" d="M361.5,172.1c-0.3-0.8-0.2-1.5-0.1-2.2c0.8,0,1.4,0.5,2.1,1.1C363,171.6,362.4,172,361.5,172.1z"/>
		<path class="st0" d="M306.7,152.2c0.9-0.2,1.5-1.8,2.5-0.8c0.4,0.4,0.5,1.8-0.1,2.1C308.1,154,307.5,152.9,306.7,152.2z"/>
		<path class="st0" d="M470.6,321.3c-0.8-0.2-1.8-0.4-1.8-1.1c0-0.7,1-0.9,1.8-1.1C470.6,319.8,470.6,320.5,470.6,321.3z"/>
		<path class="st0" d="M470,283.9c-0.5-0.4-1.5-0.4-1.3-1.1c0.1-0.4,0.9-0.9,1.4-0.9c0.8-0.1,0.5,0.8,0.5,1.2
			C470.8,283.6,470.6,283.9,470,283.9z"/>
		<path class="st0" d="M438.4,3c0,0.5,0.1,1.2-0.5,1.1c-0.5-0.1-1.3-0.3-1.4-1c0-0.7,0.8-0.9,1.3-1C438.6,2,438.3,2.7,438.4,3z"/>
		<path class="st0" d="M470.7,244.3c-0.2,1,0.4,2-0.5,2.3c-0.3,0.1-1.3-0.5-1.4-0.9C468.8,244.8,469.8,244.8,470.7,244.3z"/>
		<path class="st0" d="M177.8,3c0.6-0.5,1.2-0.9,2.1-1c0,0.8,0,1.5,0,2.3C179,4.2,178.3,3.8,177.8,3z"/>
		<path class="st0" d="M470.6,60.2c-0.9,0-1.5-0.5-2.1-1.1c0.5-0.7,1.1-1,1.9-1.3C470.9,58.7,470.7,59.4,470.6,60.2z"/>
		<path class="st0" d="M199.9,151.1c1,0,1.6,0.6,2.4,1.1c-0.6,0.8-1.5,1.6-2.1,1.3C199.3,153.1,199.7,151.9,199.9,151.1z"/>
		<path class="st0" d="M298.8,133.7c-0.5,0.7-1.1,1-1.8,1.1c-0.3-0.7-0.2-1.4-0.1-2.2C297.7,132.6,298.2,133.1,298.8,133.7z"/>
		<path class="st0" d="M438.2,79.1c-0.8-0.5-1.4-0.9-2.1-1.3c0.5-0.7,1.2-0.9,2-1.2C438.5,77.3,438.3,78.1,438.2,79.1z"/>
		<path class="st0" d="M276.7,132.4c0.2,0.9,0.6,1.8-0.2,2.3c-0.5,0.3-1.6-0.4-1.6-0.9C274.8,132.9,275.9,132.8,276.7,132.4z"/>
		<path class="st0" d="M458.2,374.7c1.2,0.5,1.9,0.8,2.5,1.6c-0.7,0.4-1.4,0.8-2.1,1.2C457.9,376.6,458.3,375.7,458.2,374.7z"/>
		<path class="st0" d="M234.2,133.8c-0.6,0.4-1.2,1.1-1.8,0.8c-0.7-0.4-0.3-1.3-0.2-2.1C233.2,132.7,233.8,133.1,234.2,133.8z"/>
		<path class="st0" d="M135.7,113.9c0.4,0.5,1.3,0.3,1.7,1.2c-0.2,0.6-0.9,0.8-1.6,1.1C134.6,115.5,134.9,114.7,135.7,113.9z"/>
		<path class="st0" d="M210.1,133.9c0.6-0.8,1.2-1.1,1.9-1.3c0.4,0.7,0.1,1.4,0.2,2.4C211.4,134.5,210.8,134.2,210.1,133.9z"/>
		<path class="st0" d="M147.4,57.9c0.3,0.9,0.3,1.5,0.2,2.2c-0.9,0.3-1.3-0.6-2.1-0.7C145.8,58.4,146.6,58.3,147.4,57.9z"/>
		<path class="st0" d="M490.7,281.9c0.8-0.1,1.3,0.5,1.9,0.8c-0.3,0.9-1.1,1.4-1.7,1.2C490.1,283.5,490.6,282.6,490.7,281.9z"/>
		<path class="st0" d="M493,357.2c-0.7,0.9-1.4,1.3-2.3,1.5c-0.5-0.8-0.3-1.6-0.2-2.5C491.5,356.2,492.1,356.9,493,357.2z"/>
		<path class="st0" d="M493.2,59.1c-1.1,0.6-1.8,0.9-2.5,1.3c-0.3-1-0.4-1.8,0-2.6C491.6,57.9,492.1,58.5,493.2,59.1z"/>
		<path class="st0" d="M491.6,244.6c1.6,0.7,1.5,1.3,0,1.9c-1,0.4-1.2-0.2-1.2-0.9C490.4,244.8,490.6,244.3,491.6,244.6z"/>
		<path class="st0" d="M145.6,96.5c0.6-0.5,1-1.4,1.8-0.8c0.2,0.2,0.3,1.2,0,1.4C146.7,97.8,146.3,96.8,145.6,96.5z"/>
		<path class="st0" d="M425.7,284.3c0.4-1.2-0.4-2.2,0.8-2.5c0.4-0.1,1.4,0.5,1.5,0.9C428,283.7,426.9,283.7,425.7,284.3z"/>
		<path class="st0" d="M169.8,21.8c-0.7,0.5-1.3,1.4-2.1,0.9c-0.4-0.3-0.5-1.5,0-1.8C168.5,20.3,169.1,21.3,169.8,21.8z"/>
		<path class="st0" d="M492.6,320.1c-0.4,0.8-1,1-1.7,1.2c-0.5-0.6-0.2-1.3-0.3-2.1C491.5,319.1,492,319.6,492.6,320.1z"/>
		<path class="st0" d="M426.2,172.1c-0.3-0.7-0.6-1.6,0.1-2c0.4-0.2,1.4,0.3,1.4,0.8C427.9,171.8,426.9,171.8,426.2,172.1z"/>
		<path class="st0" d="M438.4,227.1c-0.1,0.4-0.1,0.9-0.7,0.7c-0.5-0.2-1-0.4-0.8-1.1c0.1-0.5,0.6-0.7,1-0.7
			C438.5,226.1,438.3,226.8,438.4,227.1z"/>
		<path class="st0" d="M426.2,95.2c0.9,0.3,1.5,0.6,1.9,1.2c-0.5,0.6-1.1,1-1.9,1C425.8,96.7,425.8,96,426.2,95.2z"/>
		<path class="st0" d="M373.7,40.5c-0.1,0.4,0,1.1-0.7,0.8c-0.4-0.2-1.2-0.3-1-1c0.1-0.5,0.7-0.8,1.2-0.8
			C373.9,39.5,373.6,40.1,373.7,40.5z"/>
		<path class="st0" d="M460.8,39.9c-1,1.1-1.6,1.8-2.3,1.5c-0.5-0.2-0.4-1.3-0.1-1.6C459.1,38.8,459.5,40.3,460.8,39.9z"/>
		<path class="st0" d="M426.2,58.1c0.7,0.1,1.3,0.4,1.8,1c-0.5,0.6-1.1,1.3-1.8,0.8C425.6,59.6,425.8,58.7,426.2,58.1z"/>
		<path class="st0" d="M426.2,132.6c0.7,0.1,1.3,0.4,1.9,1.2c-0.5,0.5-1.1,1.3-1.8,0.9C425.6,134.3,425.8,133.3,426.2,132.6z"/>
		<path class="st0" d="M406,21.8c-0.1,0.4,0.2,1.1-0.6,0.9c-0.4-0.1-1.2-0.3-1.1-0.9c0.1-0.3,0.6-0.7,1-0.8
			C406,20.7,405.9,21.4,406,21.8z"/>
		<path class="st0" d="M341.1,58c0.3,0.8,0.6,1.6-0.1,1.9c-0.4,0.2-1.2-0.2-1.3-0.7C339.6,58.4,340.6,58.5,341.1,58z"/>
		<path class="st0" d="M309.1,77.8c-0.1,0.4,0,0.9-0.5,0.8c-0.5-0.1-1.1-0.4-1.1-1c0-0.2,0.5-0.5,0.9-0.6
			C309,76.8,309.1,77.3,309.1,77.8z"/>
		<path class="st0" d="M436.4,189.6c0.5-0.4,1-1.2,1.7-0.6c0.3,0.3,0.4,1.2-0.1,1.4C437.3,190.8,436.9,190.1,436.4,189.6z"/>
		<path class="st0" d="M373.3,114.1c0.5,0.2,0.4,0.7,0.4,1.1c0,0.4,0,1-0.7,0.7c-0.4-0.2-0.8-0.4-0.7-1
			C372.4,114.4,372.8,114.2,373.3,114.1z"/>
		<path class="st0" d="M395.5,152.3c-0.5,0.5-0.9,1.1-1.6,0.7c-0.4-0.3-0.4-1.2,0-1.4C394.6,151.3,395.1,151.7,395.5,152.3z"/>
		<path class="st0" d="M363.3,96.5c-0.5,0.4-1,1.1-1.7,0.6c-0.4-0.3-0.4-1.1,0-1.4C362.4,95.3,362.8,95.9,363.3,96.5z"/>
		<path class="st0" d="M341.3,96.3c-0.1,0.4,0.1,1-0.7,0.9c-0.4-0.1-1-0.2-1-0.7c0-0.6,0.6-0.8,1.1-0.9
			C341.4,95.4,341.3,96,341.3,96.3z"/>
		<path class="st0" d="M179.2,114.2c0.7,0.1,0.7,0.6,0.6,1c0,0.4-0.1,0.8-0.7,0.6c-0.4-0.2-1-0.3-0.9-0.8
			C178.4,114.7,178.9,114.4,179.2,114.2z"/>
		<path class="st0" d="M395.3,40.2c-0.5,0.8-1,1.4-1.7,0.8c-0.2-0.2-0.3-0.8-0.1-1.1C394.2,39.1,394.6,40.6,395.3,40.2z"/>
		<path class="st0" d="M168.3,97.2c-0.8,0.1-0.7-0.5-0.7-0.9c0-0.4,0-0.9,0.6-0.7c0.4,0.1,1,0.3,1,0.8C169.3,97,168.7,97,168.3,97.2
			z"/>
		<path class="st0" d="M438.3,264.2c0,0.4,0.1,1.1-0.6,0.9c-0.5-0.1-1.2-0.3-1.1-0.9c0-0.3,0.6-0.6,1-0.8
			C438.3,263.1,438.3,263.8,438.3,264.2z"/>
		<path class="st0" d="M438.1,302.5c-0.8,0-1.2-0.5-1.9-0.9c0.4-0.7,1.2-1.3,1.7-1C438.7,300.9,438.4,301.8,438.1,302.5z"/>
		<path class="st0" d="M362.2,60c-0.7,0.1-0.7-0.3-0.7-0.6c0-0.5-0.2-1.2,0.7-1.1c0.4,0.1,1,0.5,1,0.8
			C363.3,59.7,362.3,59.6,362.2,60z"/>
		<path class="st0" d="M458.3,4.9c-0.1-1.5-0.5-2.3,0.3-2.8c0.4-0.2,1.1,0.2,1.2,0.8C460.2,4,458.7,3.6,458.3,4.9z"/>
		<path class="st0" d="M491.6,244.6c-0.7,0-1,0.2-1,0.9c0,0.7,0.3,1,0.9,1c-0.4,0.4-1,0.9-1.2,0.1c-0.3-0.7-0.3-1.7,0-2.4
			C490.6,243.7,491.3,244.2,491.6,244.6z"/>
		<path class="st0" d="M373.6,3.2c-0.1,0.4,0,0.9-0.5,0.7c-0.4-0.1-0.9-0.4-1-0.8c-0.1-0.5,0.5-0.6,0.9-0.7
			C373.7,2.2,373.5,2.9,373.6,3.2z"/>
		<path class="st0" d="M373.3,153.4c-0.6-0.5-1.3-0.9-0.8-1.8c0.1-0.2,0.7-0.4,0.8-0.3C374,152,373.8,152.6,373.3,153.4z"/>
		<path class="st0" d="M406,96.4c-0.1,0.4,0.1,1.1-0.7,0.9c-0.5-0.1-1.2-0.2-1.1-0.9c0-0.6,0.7-0.8,1.2-0.9
			C406.2,95.3,405.9,96,406,96.4z"/>
		<path class="st0" d="M169,134.1c-0.4,0.4-0.8,1.1-1.4,0.5c-0.4-0.5-0.4-1.4,0-1.9c0.4-0.4,0.9,0.1,1.2,0.5
			C168.7,133.5,168.9,133.8,169,134.1z"/>
		<path class="st0" d="M395.1,189.6c0,0.5-0.4,0.8-0.8,0.9c-0.7,0.1-0.6-0.5-0.6-0.9c0-0.4-0.1-1,0.6-0.9
			C394.8,188.8,395.1,189.1,395.1,189.6z"/>
		<path class="st0" d="M168.1,57.9c0.4,0.8,1.2,1.2,0.5,1.9c-0.1,0.1-0.5,0.2-0.6,0.2C167.4,59.4,167.5,58.8,168.1,57.9z"/>
		<path class="st0" d="M406,59.1c0,0.5,0,1-0.7,0.7c-0.4-0.2-1-0.3-0.9-0.8c0.1-0.3,0.6-0.7,1-0.8C406.1,58.1,405.9,58.8,406,59.1z"
			/>
		<path class="st0" d="M233.7,96.2c0,0.6-0.4,0.7-0.7,0.8c-0.5,0.2-0.7-0.1-0.7-0.5c0-0.4,0-0.8,0.5-0.8
			C233.2,95.7,233.5,96.1,233.7,96.2z"/>
		<path class="st0" d="M426.5,209.3c-0.6-0.2-0.5-0.7-0.4-1.1c0-0.4-0.1-1,0.6-0.9c0.5,0.1,0.8,0.5,0.7,1
			C427.3,208.8,426.9,209.1,426.5,209.3z"/>
		<path class="st0" d="M275.7,95.7c1-0.1,1,0.3,1,0.7c0,0.4-0.1,0.8-0.6,0.6c-0.3-0.1-0.8-0.2-0.8-0.6
			C275.3,96.1,275.7,95.8,275.7,95.7z"/>
		<path class="st0" d="M308.4,41.2c-0.4-0.1-0.9-0.3-0.8-0.9c0.1-0.3,0.6-0.5,0.9-0.5c0.5-0.1,0.6,0.4,0.5,0.8
			C309,40.9,309,41.3,308.4,41.2z"/>
		<path class="st0" d="M394.6,3.8c-0.7,0.2-0.7-0.2-0.7-0.6c0-0.3-0.1-0.9,0.4-0.8c0.4,0,1,0.3,1.1,0.6
			C395.5,3.5,394.9,3.7,394.6,3.8z"/>
		<path class="st0" d="M437.8,39.6c0.7,0.1,0.5,0.6,0.5,1c0,0.5-0.1,1-0.7,0.7c-0.4-0.2-1-0.3-0.9-0.8
			C436.7,39.8,437.3,39.8,437.8,39.6z"/>
		<path class="st0" d="M373.6,77.8c0,0.4,0,0.9-0.6,0.7c-0.3-0.1-0.8-0.4-0.8-0.7c-0.1-0.6,0.5-0.7,0.9-0.7
			C373.7,76.9,373.5,77.5,373.6,77.8z"/>
		<path class="st0" d="M395.4,77.8c-0.3,0.5-0.7,0.8-1.3,0.8c-0.5-0.1-0.4-0.6-0.4-0.9c0-0.5,0.1-1,0.7-0.7
			C394.8,77.1,395.4,77.2,395.4,77.8z"/>
		<path class="st0" d="M426.3,246.7c-0.4-0.7-0.5-1.4,0-2c0-0.1,0.6,0.1,0.7,0.3C427.3,245.7,427.3,246.3,426.3,246.7z"/>
		<path class="st0" d="M341.3,21.7c0,0.4,0,0.8-0.5,0.8c-0.4,0-1-0.2-1-0.7c0-0.5,0.5-0.7,1-0.8C341.3,20.9,341.3,21.4,341.3,21.7z"
			/>
		<path class="st0" d="M427.7,21.7c-0.3,0.6-0.7,0.8-1.1,0.8c-0.6,0.1-0.5-0.5-0.5-0.8c0-0.4,0-0.9,0.5-0.7
			C427.1,21.1,427.4,21.5,427.7,21.7z"/>
		<path class="st0" d="M459.2,339.6c-0.2,0.4-0.6,0.7-0.9,0.3c-0.4-0.6-0.4-1.5,0-2.1c0.3-0.5,0.8,0.1,1.1,0.4
			C459.2,338.6,458.9,339,459.2,339.6z"/>
		<path class="st0" d="M341.2,133.7c0,0.4-0.1,0.8-0.6,0.6c-0.3-0.1-0.5-0.3-0.7-0.5c0.3-0.3,0.5-0.6,0.8-0.8
			C341.2,132.8,341.2,133.3,341.2,133.7z"/>
		<path class="st0" d="M362.2,133c0.3,0.2,0.8,0.4,0.7,0.8c-0.1,0.3-0.5,0.6-0.8,0.6c-0.6,0.1-0.5-0.4-0.5-0.7
			C361.5,133.2,361.6,132.9,362.2,133z"/>
		<path class="st0" d="M201.4,40.5c-0.1,0.4-0.4,0.6-0.8,0.6c-0.5,0-0.6-0.3-0.6-0.7c0-0.4,0.2-0.7,0.7-0.6
			C201,39.9,201.3,40,201.4,40.5z"/>
		<path class="st0" d="M329.7,115.9c-0.6-0.2-0.5-0.6-0.5-1c0-0.4,0.2-0.8,0.7-0.5c0.3,0.1,0.8,0.3,0.7,0.7
			C330.5,115.5,330,115.7,329.7,115.9z"/>
		<path class="st0" d="M459.8,301.8c-0.3,0.4-0.7,0.9-1.2,0.7c-0.6-0.3-0.4-1.1-0.2-1.6c0.2-0.6,0.6-0.4,0.9,0
			C459.3,301.3,459.6,301.5,459.8,301.8z"/>
		<path class="st0" d="M459.3,227.6c-0.5,0.4-0.9,0.6-1-0.3c-0.1-0.8,0-1.4,1-1C460.2,226.8,459.9,227.2,459.3,227.6z"/>
		<path class="st0" d="M329.8,77.1c0.3,0.2,0.8,0.3,0.7,0.7c-0.1,0.3-0.5,0.5-0.8,0.6c-0.5,0.1-0.4-0.3-0.4-0.6
			C329.3,77.5,329.3,77.1,329.8,77.1z"/>
		<path class="st0" d="M276.8,59.3c-0.1,0.6-0.5,0.6-0.8,0.4c-0.3-0.2-0.8-0.2-0.5-0.8c0.2-0.4,0.5-0.5,0.9-0.4
			C276.8,58.6,276.8,59,276.8,59.3z"/>
		<path class="st0" d="M329.9,41.1c-0.6,0.2-0.6-0.3-0.6-0.6c0-0.4,0-0.8,0.5-0.7c0.3,0.1,0.7,0.4,0.8,0.6
			C330.7,40.9,330.1,40.9,329.9,41.1z"/>
		<path class="st0" d="M200.7,78.4c-0.5,0-0.7-0.2-0.7-0.6c0-0.4,0.1-0.8,0.6-0.7c0.3,0.1,0.8,0.4,0.8,0.6
			C201.5,78.1,201.1,78.3,200.7,78.4z"/>
		<path class="st0" d="M330.6,3.1c-0.1,0.5-0.4,0.6-0.8,0.7c-0.5,0.1-0.6-0.3-0.6-0.7c0-0.4,0.1-0.8,0.6-0.7
			C330.2,2.5,330.6,2.7,330.6,3.1z"/>
		<path class="st0" d="M135.7,113.9c-0.5,0.8-0.7,1.6,0.2,2.3c-1.1-0.2-1.3-1.4-0.5-2.5c0,0,0.1,0,0.2,0.1
			C135.6,113.7,135.7,113.8,135.7,113.9z"/>
		<path class="st0" d="M362.9,21.7c0,0.4-0.4,0.6-0.7,0.7c-0.5,0.2-0.7-0.1-0.7-0.5c0-0.3-0.1-0.8,0.3-0.9
			C362.3,21,362.7,21.2,362.9,21.7z"/>
		<path class="st0" d="M243.2,114.7c0.3-0.5,0.8-0.9,1.2-0.6c0.3,0.2,0.3,1,0.2,1.5c-0.1,0.6-0.5,0.6-0.9,0.1
			C243.7,115.3,243.4,115,243.2,114.7z"/>
		<path class="st0" d="M395,115.4c0,0.3-0.4,0.5-0.7,0.5c-0.7,0-0.5-0.6-0.5-1c0-0.4,0-0.8,0.6-0.7C394.8,114.3,395,114.7,395,115.4
			z"/>
		<path class="st0" d="M459.2,339.6c-0.3-0.1-0.7-0.2-0.7-0.7c0-0.6,0.5-0.6,0.9-0.8c0.3,0.2,0.8,0.4,0.8,0.7
			C460.2,339.4,459.5,339.2,459.2,339.6z"/>
		<path class="st0" d="M405.8,134.4c-0.6-0.2-2.1,0.1-0.9-1.3C406.3,132.8,406.2,133.5,405.8,134.4z"/>
		<path class="st0" d="M307.8,3.4c0-0.6,0.3-0.8,0.7-0.9c0.3-0.1,0.5,0.2,0.6,0.5c0,0.4-0.2,0.7-0.6,0.7
			C308.2,3.7,307.9,3.5,307.8,3.4z"/>
		<path class="st0" d="M405.3,170.3c0.6,0.2,0.5,0.6,0.5,0.9c0,0.3-0.1,0.6-0.5,0.4c-0.3-0.1-0.8-0.2-0.7-0.7
			C404.7,170.6,405.1,170.4,405.3,170.3z"/>
		<path class="st0" d="M307.7,114.7c0.3-0.4,0.7-0.8,1.1-0.6c0.6,0.4,0.4,1.1,0.2,1.6c-0.2,0.5-0.6,0.2-0.8-0.1
			C308.2,115.3,307.9,115,307.7,114.7z"/>
		<path class="st0" d="M179.7,40.5c0,0.4,0,0.8-0.6,0.6c-0.3-0.1-0.8-0.3-0.7-0.7c0-0.2,0.4-0.4,0.6-0.5
			C179.6,39.7,179.7,40,179.7,40.5z"/>
		<path class="st0" d="M405.6,207.3c0.6,0.2,0.4,0.7,0.4,1.1c0,0.3,0.1,0.8-0.5,0.7c-0.5-0.1-0.7-0.5-0.8-1
			C404.7,207.7,405.1,207.5,405.6,207.3z"/>
		<path class="st0" d="M298.5,96.4c-0.4,0.3-0.6,0.5-0.8,0.6c-0.5,0.2-0.6-0.1-0.6-0.6c0-0.3,0-0.7,0.4-0.6
			C297.7,95.8,298,96.1,298.5,96.4z"/>
		<path class="st0" d="M244.4,77.9c0,0.3-0.2,0.6-0.5,0.6c-0.2,0-0.5-0.3-0.6-0.5c-0.1-0.3,0.1-0.6,0.5-0.6
			C244,77.4,244.3,77.5,244.4,77.9z"/>
		<path class="st0" d="M212,96.3c0,0.5-0.1,0.8-0.6,0.7c-0.2-0.1-0.4-0.3-0.6-0.5c0.3-0.2,0.5-0.5,0.8-0.6
			C212,95.7,211.9,96.1,212,96.3z"/>
		<path class="st0" d="M298.3,59.2c-0.2,0.1-0.4,0.3-0.6,0.4c-0.5,0.2-0.7-0.2-0.7-0.6c0-0.3,0-0.7,0.4-0.6
			C297.8,58.5,298.1,58.7,298.3,59.2z"/>
		<path class="st0" d="M459.2,264.9c-0.1,0.3-0.5,0.5-0.7,0.3c-0.4-0.5-0.4-1.2-0.1-1.7c0.3-0.5,0.6-0.2,0.8,0.1
			C459.1,264,459.1,264.5,459.2,264.9z"/>
		<path class="st0" d="M405.8,134.4c-0.1-0.6,0.1-1.3-0.9-1.3c0.2-0.4,0.6-0.8,1-0.5C406.4,133.2,406.6,133.9,405.8,134.4z"/>
		<path class="st0" d="M265.4,77.2c0.1,0.1,0.5,0.3,0.5,0.5c0,0.4-0.3,0.6-0.7,0.7c-0.4,0.1-0.5-0.3-0.5-0.6
			C264.7,77.4,264.9,77.1,265.4,77.2z"/>
		<path class="st0" d="M211.9,59.3c0,0.4-0.2,0.5-0.6,0.4c-0.2-0.1-0.6-0.2-0.5-0.6c0.1-0.3,0.4-0.5,0.7-0.4
			C211.9,58.6,211.9,58.9,211.9,59.3z"/>
		<path class="st0" d="M459.3,227.6c0.3-0.4,0.4-0.9,0-1.3c0.5,0,1.1,0.2,1.1,0.6C460.4,227.3,459.8,227.5,459.3,227.6z"/>
		<path class="st0" d="M265.3,115.7c-0.4,0-0.6-0.1-0.6-0.5c0-0.4,0-0.8,0.5-0.8c0.3,0,0.6,0.3,0.7,0.5
			C266.1,115.4,265.5,115.5,265.3,115.7z"/>
		<path class="st0" d="M298.4,21.8c-0.3,0.2-0.5,0.4-0.8,0.5c-0.3,0.1-0.5,0-0.6-0.4c0-0.4,0.1-0.8,0.5-0.7
			C297.9,21.3,298.1,21.6,298.4,21.8z"/>
		<path class="st0" d="M265.6,39.9c0,0,0.3,0.3,0.2,0.5c0,0.2-0.3,0.5-0.6,0.6c-0.3,0.1-0.5-0.2-0.5-0.5
			C264.8,40.1,264.9,39.8,265.6,39.9z"/>
		<path class="st0" d="M211.3,21.3c0.6,0,0.6,0.3,0.6,0.6c0,0.3-0.1,0.6-0.5,0.6c-0.3-0.1-0.8-0.2-0.7-0.6
			C210.8,21.5,211.2,21.4,211.3,21.3z"/>
		<path class="st0" d="M201.6,115c-0.3,0.3-0.5,0.5-0.8,0.6c-0.6,0.2-0.6-0.2-0.6-0.6c0-0.4,0.2-0.6,0.6-0.5
			C201,114.5,201.2,114.8,201.6,115z"/>
		<path class="st0" d="M459.8,301.8c-0.5-0.1-1.5,0-0.5-0.9C459.4,301.2,460.4,301.1,459.8,301.8z"/>
		<path class="st0" d="M265.2,3.7c-0.2-0.2-0.4-0.4-0.4-0.6c0-0.2,0.2-0.5,0.3-0.5c0.3,0,0.6,0.2,0.6,0.5
			C265.7,3.4,265.4,3.5,265.2,3.7z"/>
		<path class="st0" d="M244.2,3.1c-0.1,0.1-0.1,0.4-0.3,0.5c-0.3,0.1-0.6-0.1-0.6-0.5c0-0.2,0.2-0.4,0.4-0.4
			C244,2.6,244.1,2.8,244.2,3.1z"/>
		<path class="st0" d="M201.1,2.6c0-0.1,0.2,0.2,0.2,0.5c0,0.4-0.4,0.6-0.7,0.7c-0.3,0-0.4-0.3-0.4-0.6
			C200.2,2.8,200.3,2.6,201.1,2.6z"/>
		<path class="st0" d="M169,134.1c-0.3-0.1-0.8,0.1-0.9-0.4c-0.1-0.6,0.5-0.4,0.8-0.5C169.2,133.5,169.6,133.7,169,134.1z"/>
		<path class="st0" d="M459.2,264.9c-0.6-0.4-0.6-0.9,0-1.3C460.2,264.1,460,264.5,459.2,264.9z"/>
		<path class="st0" d="M244.2,40.3c0,0.4-0.1,0.7-0.5,0.6c-0.2,0-0.4-0.2-0.4-0.4c0-0.3,0.2-0.6,0.5-0.6
			C243.9,39.9,244.1,40.2,244.2,40.3z"/>
		<path class="st0" d="M233.5,21.6c0,0.4-0.2,0.7-0.5,0.7c-0.1,0-0.3-0.3-0.4-0.4c0-0.3,0-0.6,0.4-0.6
			C233.2,21.3,233.3,21.5,233.5,21.6z"/>
		<path class="st0" d="M243.2,114.7c0.3,0.1,0.7-0.2,0.9,0.3c0.1,0.3-0.1,0.5-0.4,0.6C243.4,115.4,242.7,115.3,243.2,114.7z"/>
		<path class="st0" d="M307.7,114.7c0.3,0,0.8-0.2,0.9,0.3c0.1,0.4-0.2,0.5-0.4,0.7C307.9,115.4,307.1,115.4,307.7,114.7z"/>
		<path class="st0" d="M275.9,21.3c0.5-0.1,0.6,0.3,0.6,0.5c0,0.2-0.2,0.3-0.3,0.5c-0.2-0.2-0.4-0.4-0.6-0.6
			C275.5,21.7,275.8,21.4,275.9,21.3z"/>
	</g>
</g>
</svg>
