<?xml version="1.0" encoding="utf-8"?>
<!-- Generator: Adobe Illustrator 23.0.3, SVG Export Plug-In . SVG Version: 6.00 Build 0)  -->
<svg version="1.1" id="Calque_1" xmlns="http://www.w3.org/2000/svg" xmlns:xlink="http://www.w3.org/1999/xlink" x="0px" y="0px"
	 viewBox="0 0 100 100" style="enable-background:new 0 0 100 100;" xml:space="preserve">
<style type="text/css">
	.st0{fill:#42210B;}
	.st1{fill:#C69C6D;}
	.st2{opacity:0.49;fill:#C69C6D;enable-background:new    ;}
	.st3{fill:none;stroke:#42210B;stroke-width:4;stroke-linecap:round;stroke-linejoin:round;stroke-miterlimit:10;}
</style>
<g>
	<g>
		<path class="st0" d="M10.7,89.4c0-5.9,0.8-10.1,0.8-15.4c0-3.1-2.1-6.1-11.5-6.3v-4.1c9.4-0.1,11.5-3.1,11.5-6.3
			c0-5-0.8-9.9-0.8-15.4c0-8.3,4.8-10.7,14.7-10.7h4.9V35h-4.1c-8.1,0-9.9,2.1-9.9,7.3c0,4.5,0.5,9.5,0.5,14.5
			c0,5.2-1.7,7.7-7.2,8.7v0.3c5.5,0.9,7.2,3.5,7.2,8.7c0,5.5-0.5,9.6-0.5,14.5c0,5.2,1.7,7.3,9.9,7.3h4.1v3.7h-4.9
			C15.5,100,10.7,97.6,10.7,89.4z"/>
	</g>
</g>
<g>
	<g>
		<path class="st0" d="M56.1,96.3h4c8.1,0,10-2.1,10-7.3c0-4.9-0.5-9.1-0.5-14.5c0-5.2,1.7-7.7,7.2-8.7v-0.3
			c-5.5-0.9-7.2-3.5-7.2-8.7c0-4.9,0.5-9.9,0.5-14.5c0-5.2-1.9-7.3-10-7.3h-4v-3.7H61c10,0,14.7,2.4,14.7,10.7
			c0,5.5-0.7,10.4-0.7,15.4c0,3.1,2.1,6.1,11.5,6.2v4.1c-9.4,0.1-11.5,3.1-11.5,6.3c0,5.3,0.7,9.6,0.7,15.4C75.6,97.6,71,100,61,100
			h-4.8V96.3z"/>
	</g>
</g>
<ellipse class="st1" cx="43.3" cy="44" rx="21.9" ry="4"/>
<path class="st2" d="M42.7,0.8c-0.3-0.3-7,3.3-6.8,7.7c0.1,2.4,2.2,2.7,3.5,5.5c3,6.4-3.8,13.3-1.3,16.1c1.6,1.7,5.7,0.5,8.1-1.1
	c4.1-2.9,5.6-9,3.7-13c-2.6-5.5-10.6-4.9-11.1-9C38.3,3.7,43,1.1,42.7,0.8z"/>
<polyline class="st3" points="74.4,47.3 97.9,47.3 97.9,84.9 74.4,84.9 "/>
</svg>
