<?xml version="1.0" encoding="utf-8"?>
<!-- Generator: Adobe Illustrator 23.0.3, SVG Export Plug-In . SVG Version: 6.00 Build 0)  -->
<svg version="1.1" id="Calque_1" xmlns="http://www.w3.org/2000/svg" xmlns:xlink="http://www.w3.org/1999/xlink" x="0px" y="0px"
	 viewBox="0 0 100 100" style="enable-background:new 0 0 100 100;" xml:space="preserve">
<style type="text/css">
	.st0{fill:#42210B;}
	.st1{fill:#C69C6D;}
	.st2{opacity:0.49;fill:#C69C6D;}
	.st3{fill:none;stroke:#42210B;stroke-width:0.75;stroke-linecap:round;stroke-linejoin:round;stroke-miterlimit:10;}
</style>
<g>
	<g>
		<path class="st0" d="M39.21,56.2c0-0.88,0.12-1.51,0.12-2.31c0-0.47-0.32-0.92-1.74-0.94v-0.62c1.42-0.01,1.74-0.47,1.74-0.94
			c0-0.75-0.12-1.49-0.12-2.31c0-1.24,0.72-1.6,2.22-1.6h0.74v0.56h-0.62c-1.22,0-1.49,0.31-1.49,1.09c0,0.68,0.07,1.43,0.07,2.17
			c0,0.78-0.26,1.16-1.09,1.31v0.05c0.83,0.14,1.09,0.53,1.09,1.31c0,0.82-0.07,1.44-0.07,2.17c0,0.78,0.26,1.09,1.49,1.09h0.62
			v0.56h-0.74C39.93,57.79,39.21,57.43,39.21,56.2z"/>
	</g>
</g>
<g>
	<g>
		<path class="st0" d="M46.05,57.23h0.61c1.22,0,1.5-0.31,1.5-1.09c0-0.73-0.07-1.36-0.07-2.17c0-0.78,0.25-1.16,1.08-1.31v-0.05
			c-0.83-0.14-1.08-0.53-1.08-1.31c0-0.74,0.07-1.49,0.07-2.17c0-0.78-0.28-1.09-1.5-1.09h-0.61v-0.56h0.73
			c1.51,0,2.21,0.36,2.21,1.6c0,0.83-0.11,1.56-0.11,2.31c0,0.47,0.32,0.92,1.74,0.93v0.62c-1.42,0.01-1.74,0.47-1.74,0.94
			c0,0.8,0.11,1.44,0.11,2.31c0,1.24-0.7,1.6-2.21,1.6h-0.73V57.23z"/>
	</g>
</g>
<ellipse class="st1" cx="44.12" cy="49.4" rx="3.3" ry="0.6"/>
<path class="st2" d="M44.03,42.92c-0.04-0.05-1.05,0.5-1.02,1.15c0.02,0.36,0.33,0.4,0.53,0.82c0.45,0.96-0.58,2-0.2,2.41
	c0.24,0.25,0.86,0.08,1.22-0.16c0.62-0.43,0.84-1.35,0.56-1.95c-0.39-0.82-1.6-0.74-1.68-1.35C43.37,43.36,44.07,42.96,44.03,42.92z
	"/>
<polyline class="st3" points="48.8,49.89 52.66,49.89 52.66,55.53 48.8,55.53 "/>
</svg>
